<svg xmlns="http://www.w3.org/2000/svg" viewBox="0 0 500 500"><g id="freepik--background-complete--inject-71"><path d="M59.28,336.64c2.49,10.61,12.58,17.83,23.37,15.3,6.47-1.52,11.79-5.2,14.35-10.67a19.78,19.78,0,0,0,1-13.15C95,315.38,84,310,73.4,312.46a18.12,18.12,0,0,0-10.72,6.89A21.48,21.48,0,0,0,59.28,336.64Z" style="fill:#dbdbdb;opacity:0.30000000000000004"></path><path d="M67.87,334.66c1.39,5.92,7,9.94,13,8.53a11.36,11.36,0,0,0,8-5.95,11,11,0,0,0,.56-7.33c-1.66-7.11-7.84-10.12-13.73-8.74a10.12,10.12,0,0,0-6,3.84A11.94,11.94,0,0,0,67.87,334.66Z" style="fill:#dbdbdb;opacity:0.30000000000000004"></path><path d="M91.16,125.57c1.8,7.67,9.08,12.88,16.86,11.05,4.68-1.1,8.51-3.76,10.37-7.7a14.3,14.3,0,0,0,.73-9.49c-2.16-9.2-10.15-13.1-17.77-11.31a13.17,13.17,0,0,0-7.74,5A15.51,15.51,0,0,0,91.16,125.57Z" style="fill:#dbdbdb;opacity:0.30000000000000004"></path><path d="M97.36,124.14a7.9,7.9,0,0,0,9.41,6.16,8.23,8.23,0,0,0,5.78-4.29,8.51,8.51,0,0,0-9.51-11.6,7.27,7.27,0,0,0-4.31,2.77A8.59,8.59,0,0,0,97.36,124.14Z" style="fill:#dbdbdb;opacity:0.30000000000000004"></path><path d="M332.69,56.77c1.8,7.66,9.08,12.87,16.86,11,4.68-1.09,8.52-3.75,10.37-7.7a14.29,14.29,0,0,0,.73-9.49c-2.16-9.2-10.15-13.09-17.77-11.31a13.13,13.13,0,0,0-7.74,5A15.5,15.5,0,0,0,332.69,56.77Z" style="fill:#dbdbdb;opacity:0.30000000000000004"></path><path d="M338.89,55.34a7.91,7.91,0,0,0,9.41,6.16,8.25,8.25,0,0,0,5.78-4.3,8,8,0,0,0,.4-5.29,8,8,0,0,0-9.91-6.31,7.29,7.29,0,0,0-4.31,2.78A8.62,8.62,0,0,0,338.89,55.34Z" style="fill:#dbdbdb;opacity:0.30000000000000004"></path><path d="M52,208.66A8.13,8.13,0,0,0,61.71,215a8.45,8.45,0,0,0,5.95-4.42,8.15,8.15,0,0,0,.42-5.45,8.26,8.26,0,0,0-10.2-6.49,7.51,7.51,0,0,0-4.44,2.85A8.89,8.89,0,0,0,52,208.66Z" style="fill:#dbdbdb;opacity:0.30000000000000004"></path><path d="M55.59,207.84a4.54,4.54,0,0,0,5.4,3.53,4.71,4.71,0,0,0,3.32-2.46,4.88,4.88,0,0,0-5.46-6.66,4.15,4.15,0,0,0-2.47,1.59A4.94,4.94,0,0,0,55.59,207.84Z" style="fill:#dbdbdb;opacity:0.30000000000000004"></path><path d="M406.47,84.5a8.13,8.13,0,0,0,9.68,6.34,8.42,8.42,0,0,0,6-4.42,8.75,8.75,0,0,0-9.78-11.94,7.52,7.52,0,0,0-4.44,2.86A8.87,8.87,0,0,0,406.47,84.5Z" style="fill:#dbdbdb;opacity:0.30000000000000004"></path><path d="M410,83.68a4.54,4.54,0,0,0,5.4,3.54,4.71,4.71,0,0,0,3.32-2.47,4.88,4.88,0,0,0-5.46-6.66,4.25,4.25,0,0,0-2.48,1.59A5,5,0,0,0,410,83.68Z" style="fill:#dbdbdb;opacity:0.30000000000000004"></path><path d="M240.31,232a8.13,8.13,0,0,0,9.68,6.34,8.42,8.42,0,0,0,5.95-4.42A8.75,8.75,0,0,0,246.16,222a7.51,7.51,0,0,0-4.44,2.85A8.89,8.89,0,0,0,240.31,232Z" style="fill:#dbdbdb;opacity:0.30000000000000004"></path><path d="M243.87,231.22a4.54,4.54,0,0,0,5.4,3.54,4.74,4.74,0,0,0,3.32-2.47,4.88,4.88,0,0,0-5.46-6.66,4.25,4.25,0,0,0-2.48,1.59A5,5,0,0,0,243.87,231.22Z" style="fill:#dbdbdb;opacity:0.30000000000000004"></path><path d="M224.67,264.51a8.15,8.15,0,0,0,9.68,6.35,8.45,8.45,0,0,0,6-4.42,8.18,8.18,0,0,0,.42-5.46,8.27,8.27,0,0,0-10.2-6.49,7.52,7.52,0,0,0-4.44,2.86A8.87,8.87,0,0,0,224.67,264.51Z" style="fill:#dbdbdb;opacity:0.30000000000000004"></path><path d="M228.23,263.69a4.53,4.53,0,0,0,5.4,3.54,4.71,4.71,0,0,0,3.32-2.47,4.88,4.88,0,0,0-5.46-6.66,4.21,4.21,0,0,0-2.48,1.6A5,5,0,0,0,228.23,263.69Z" style="fill:#dbdbdb;opacity:0.30000000000000004"></path><path d="M414.79,348.61l13.36-.28,6.58-.11c2.19-.05,4.36,0,6.54-.06l-.44.45-.06-11.19.5.5L428,337.86c-4.41,0-8.82-.12-13.24-.17l.28-.27c0,1.83-.09,3.67-.14,5.54Zm0,0-.14-5.54c0-1.86-.11-3.75-.13-5.65v-.27h.27c4.42,0,8.83-.16,13.24-.17l13.24-.06h.5v.5l0,11.19v.45h-.45c-2.23,0-4.47,0-6.69-.06l-6.66-.11Z" style="fill:#ebebeb"></path><path d="M429.56,362.72l13.36-.28,6.58-.11c2.19-.05,4.36,0,6.54-.06l-.44.45-.05-11.19.49.5L442.8,352c-4.41,0-8.82-.12-13.24-.17l.28-.27c0,1.83-.09,3.67-.13,5.54Zm0,0-.14-5.54c0-1.86-.11-3.75-.13-5.65v-.27h.27c4.42-.05,8.83-.16,13.24-.17L456,351h.51v.5l-.05,11.19v.45H456c-2.23,0-4.46,0-6.69-.06l-6.66-.11Z" style="fill:#ebebeb"></path><path d="M400,362.72l13.36-.28,6.58-.11c2.18-.05,4.36,0,6.54-.06l-.44.45L426,351.53l.5.5L413.26,352c-4.41,0-8.83-.12-13.24-.17l.27-.27c0,1.83-.08,3.67-.13,5.54Zm0,0-.14-5.54c-.05-1.86-.11-3.75-.13-5.65v-.27H400c4.41-.05,8.83-.16,13.24-.17L426.5,351h.5v.5L427,362.72v.45h-.44c-2.23,0-4.47,0-6.69-.06l-6.66-.11Z" style="fill:#ebebeb"></path><path d="M58.73,362.72l13.35-.28,6.58-.11c2.19-.05,4.37,0,6.55-.06l-.45.45-.05-11.19.5.5L72,352c-4.42,0-8.83-.12-13.24-.17l.27-.27c0,1.83-.09,3.67-.13,5.54Zm0,0-.15-5.54c0-1.86-.11-3.75-.13-5.65v-.27h.28c4.41-.05,8.82-.16,13.24-.17L85.21,351h.5v.5l-.06,11.19v.45h-.44c-2.23,0-4.47,0-6.7-.06L71.85,363Z" style="fill:#ebebeb"></path><path d="M58.73,60.77l13.35-.28,6.58-.12c2.19,0,4.37,0,6.55,0l-.45.45-.05-11.19.5.49L72,50c-4.42,0-8.83-.11-13.24-.16l.27-.27c0,1.83-.09,3.67-.13,5.53Zm0,0-.15-5.54c0-1.87-.11-3.76-.13-5.65v-.27h.28c4.41,0,8.82-.16,13.24-.16l13.24-.06h.5v.51l-.06,11.19v.44h-.44c-2.23,0-4.47,0-6.7-.05L71.85,61Z" style="fill:#ebebeb"></path><path d="M44,74.88l13.35-.28,6.58-.12c2.19,0,4.36,0,6.55,0l-.45.45,0-11.19.5.49L57.2,64.12C52.78,64.12,48.37,64,44,64l.27-.27c0,1.83-.09,3.67-.13,5.53Zm0,0-.15-5.54c0-1.87-.11-3.76-.13-5.65v-.27H44c4.41,0,8.82-.16,13.24-.16l13.24-.06h.5v.51l-.06,11.19v.44h-.44c-2.24,0-4.47,0-6.7,0l-6.66-.12Z" style="fill:#ebebeb"></path><path d="M429.56,60.78l13.36-.28,6.58-.11c2.19,0,4.36,0,6.54-.06l-.44.45-.05-11.19.49.5L442.8,50c-4.41,0-8.82-.11-13.24-.16l.28-.27c0,1.83-.09,3.67-.13,5.53Zm0,0-.14-5.54c0-1.87-.11-3.75-.13-5.65v-.27h.27c4.42-.05,8.83-.15,13.24-.16L456,49.09h.51v.5l-.05,11.19v.45H456c-2.23,0-4.46,0-6.69,0l-6.66-.11Z" style="fill:#ebebeb"></path><path d="M256.8,182.73l-13.36.28-6.58.11c-2.19,0-4.36,0-6.55,0l.45-.44.05,11.19-.5-.5,13.25.06c4.41,0,8.82.11,13.24.16l-.28.28c0-1.83.09-3.68.13-5.54Zm0,0,.14,5.53c0,1.87.11,3.76.13,5.66v.27h-.27c-4.42.05-8.83.16-13.24.16l-13.25.07h-.5v-.5l.05-11.19v-.45h.44c2.24,0,4.47,0,6.7.06l6.66.11Z" style="fill:#ebebeb"></path><path d="M242,168.62l-13.35.28-6.58.11c-2.19.05-4.37,0-6.55.05l.45-.44,0,11.19-.5-.5,13.24.06c4.42,0,8.83.11,13.24.16l-.27.28c0-1.83.09-3.68.13-5.54Zm0,0,.15,5.53c0,1.87.11,3.76.13,5.66v.27H242c-4.41,0-8.82.16-13.24.16l-13.24.07H215v-.5l.06-11.19v-.45h.44c2.23,0,4.47,0,6.7.06l6.66.11Z" style="fill:#ebebeb"></path></g><g id="freepik--Shadow--inject-71"><ellipse cx="170.3" cy="444.58" rx="114.32" ry="16.72" style="fill:#ebebeb"></ellipse></g><g id="freepik--Virus--inject-71"><path d="M74.08,241.61s2.92-4,3-4.2-.54-1.37-.33-1.63,3,.9,2.74,1.45c-.18.34-1.14.43-1.24.58s-2.1,4.93-2.1,4.93Z" style="fill:#407BFF"></path><path d="M77.08,235.88a6,6,0,0,0,2.3,1.13" style="fill:#263238"></path><path d="M74.08,241.61s2.92-4,3-4.2-.54-1.37-.33-1.63,3,.9,2.74,1.45c-.18.34-1.14.43-1.24.58s-2.1,4.93-2.1,4.93Z" style="opacity:0.1"></path><path d="M67,241.78s-.78-4.9-.82-5.13-1.35-.58-1.38-.92,2.77-1.51,3-.9c.11.36-.51,1.1-.47,1.28s2,5,2,5Z" style="fill:#407BFF"></path><path d="M65,235.61a6.12,6.12,0,0,0,2.43-.83" style="fill:#263238"></path><path d="M67,241.78s-.78-4.9-.82-5.13-1.35-.58-1.38-.92,2.77-1.51,3-.9c.11.36-.51,1.1-.47,1.28s2,5,2,5Z" style="opacity:0.1"></path><path d="M62.05,246.93l-4.2-3.05c-.18-.14-1.36.54-1.62.32s.89-3,1.45-2.73c.33.18.42,1.14.57,1.24s4.93,2.1,4.93,2.1Z" style="fill:#407BFF"></path><path d="M56.32,243.93a6,6,0,0,0,1.13-2.3" style="fill:#263238"></path><path d="M62.05,246.93l-4.2-3.05c-.18-.14-1.36.54-1.62.32s.89-3,1.45-2.73c.33.18.42,1.14.57,1.24s4.93,2.1,4.93,2.1Z" style="opacity:0.1"></path><path d="M62.22,254l-5.13.82c-.23,0-.58,1.34-.91,1.38s-1.51-2.78-.91-3c.36-.11,1.1.51,1.28.47s5-2,5-2Z" style="fill:#407BFF"></path><path d="M56.05,256a6,6,0,0,0-.83-2.43" style="fill:#263238"></path><path d="M62.22,254l-5.13.82c-.23,0-.58,1.34-.91,1.38s-1.51-2.78-.91-3c.36-.11,1.1.51,1.28.47s5-2,5-2Z" style="opacity:0.1"></path><path d="M67.37,259l-3.05,4.21c-.14.18.54,1.36.33,1.62s-3-.89-2.73-1.45c.17-.33,1.13-.42,1.23-.57s2.1-4.93,2.1-4.93Z" style="fill:#407BFF"></path><path d="M64.38,264.69a6,6,0,0,0-2.3-1.13" style="fill:#263238"></path><path d="M67.37,259l-3.05,4.21c-.14.18.54,1.36.33,1.62s-3-.89-2.73-1.45c.17-.33,1.13-.42,1.23-.57s2.1-4.93,2.1-4.93Z" style="opacity:0.1"></path><path d="M74.49,258.79s.77,4.89.81,5.12,1.35.59,1.38.92-2.77,1.51-3,.91c-.11-.36.51-1.1.47-1.28s-2-5-2-5Z" style="fill:#407BFF"></path><path d="M76.42,265a6,6,0,0,0-2.43.83" style="fill:#263238"></path><path d="M74.49,258.79s.77,4.89.81,5.12,1.35.59,1.38.92-2.77,1.51-3,.91c-.11-.36.51-1.1.47-1.28s-2-5-2-5Z" style="opacity:0.1"></path><path d="M79.4,253.64l4.2,3.05c.19.14,1.37-.54,1.63-.33s-.9,3-1.45,2.73c-.34-.17-.43-1.13-.58-1.23s-4.93-2.1-4.93-2.1Z" style="fill:#407BFF"></path><path d="M85.13,256.63a6,6,0,0,0-1.13,2.3" style="fill:#263238"></path><path d="M79.4,253.64l4.2,3.05c.19.14,1.37-.54,1.63-.33s-.9,3-1.45,2.73c-.34-.17-.43-1.13-.58-1.23s-4.93-2.1-4.93-2.1Z" style="opacity:0.1"></path><path d="M79.23,246.52l5.13-.81c.23,0,.58-1.35.92-1.38s1.5,2.77.9,3c-.36.11-1.1-.51-1.28-.47s-5,2-5,2Z" style="fill:#407BFF"></path><path d="M85.4,244.59a6,6,0,0,0,.83,2.42" style="fill:#263238"></path><path d="M79.23,246.52l5.13-.81c.23,0,.58-1.35.92-1.38s1.5,2.77.9,3c-.36.11-1.1-.51-1.28-.47s-5,2-5,2Z" style="opacity:0.1"></path><path d="M73,240.85s3.11-6.17,3.22-6.37-.7-1.3-.52-1.59,3.13.53,2.9,1.12c-.14.36-1.08.56-1.16.72s-2.19,7-2.19,7Z" style="fill:#407BFF"></path><path d="M76,233a6.07,6.07,0,0,0,2.43.86" style="fill:#263238"></path><path d="M65.8,242.12s-2.16-6.56-2.22-6.79-1.42-.42-1.49-.75,2.58-1.83,2.84-1.26c.15.35-.37,1.16-.31,1.34S68,241.14,68,241.14Z" style="fill:#407BFF"></path><path d="M62.33,234.43a6,6,0,0,0,2.32-1.12" style="fill:#263238"></path><path d="M61.6,248.11l-6.37-3.22c-.2-.12-1.3.7-1.58.52s.53-3.13,1.12-2.9c.35.14.55,1.08.72,1.16s7,2.19,7,2.19Z" style="fill:#407BFF"></path><path d="M53.71,245.13a6,6,0,0,0,.85-2.43" style="fill:#263238"></path><path d="M62.87,255.32s-6.56,2.16-6.78,2.22-.42,1.42-.75,1.49-1.84-2.58-1.26-2.84c.35-.15,1.16.37,1.33.32s6.48-3.4,6.48-3.4Z" style="fill:#407BFF"></path><path d="M55.18,258.79a6.07,6.07,0,0,0-1.11-2.32" style="fill:#263238"></path><path d="M68.87,259.52s-3.11,6.16-3.23,6.37.71,1.3.53,1.58-3.13-.53-2.91-1.12c.14-.35,1.09-.55,1.17-.72s2.18-7,2.18-7Z" style="fill:#407BFF"></path><path d="M65.88,267.41a6,6,0,0,0-2.43-.85" style="fill:#263238"></path><path d="M76.07,258.25s2.17,6.56,2.23,6.78,1.42.42,1.49.75S77.2,267.62,77,267c-.16-.34.37-1.16.31-1.33s-3.39-6.48-3.39-6.48Z" style="fill:#407BFF"></path><path d="M79.55,265.94a6.07,6.07,0,0,0-2.33,1.12" style="fill:#263238"></path><path d="M80.27,252.26s6.17,3.1,6.37,3.22,1.3-.71,1.59-.52-.53,3.12-1.12,2.9c-.36-.14-.56-1.09-.72-1.17s-7-2.18-7-2.18Z" style="fill:#407BFF"></path><path d="M88.17,255.24a6,6,0,0,0-.86,2.43" style="fill:#263238"></path><path d="M79,245.05l6.79-2.23c.22-.06.42-1.42.75-1.49s1.83,2.59,1.26,2.85c-.35.15-1.16-.38-1.34-.32S80,247.25,80,247.25Z" style="fill:#407BFF"></path><path d="M86.7,241.57a6,6,0,0,0,1.11,2.33" style="fill:#263238"></path><path d="M82.38,252.82c-1.47,6.31-7.47,10.59-13.88,9.09-4.06-1-7.35-3.33-8.77-6.88a12,12,0,0,1-.36-7.27c1.77-7.58,8.35-10.78,14.63-9.31a11,11,0,0,1,4.07,1.83C82.15,243.22,83.37,248.57,82.38,252.82Z" style="fill:#407BFF"></path><path d="M82.38,252.82c-1.47,6.31-7.47,10.59-13.88,9.09-4.06-1-7.35-3.33-8.77-6.88,2.8,2.22,8.59,5.77,14.39,3,8-3.81,7.48-13,3.95-17.77C82.15,243.22,83.37,248.57,82.38,252.82Z" style="opacity:0.1"></path><path d="M71.83,241.5H69.09a2.9,2.9,0,0,1,0-.3c.16-1.11.74-4.87.77-5.1s-1.27-1.08-1.2-1.46c0-.17.77-.33,1.55-.39.94-.08,2,0,2,.39s-.92,1-.94,1.24S71.83,241.5,71.83,241.5Z" style="fill:#407BFF"></path><path d="M69,234.59A6.86,6.86,0,0,0,72,234.5Z" style="fill:#263238"></path><path d="M69.14,241.2c.16-1.11.74-4.87.77-5.1s-1.27-1.08-1.2-1.46c0-.17.77-.33,1.55-.39a2,2,0,0,0-.73.32.21.21,0,0,0-.06.08c-.06.1,0,.19.07.3.25.29.85.63.87.92S69.18,241.05,69.14,241.2Z" style="opacity:0.1"></path><path d="M65.28,243l-1.94,1.93-.07-.1v0c-.51-.68-3-4.09-3.15-4.28s-1.67.13-1.88-.19.84-1.55,1.64-2.2c.37-.3.69-.45.85-.29s.08,1.38.21,1.54S65.28,243,65.28,243Z" style="fill:#407BFF"></path><path d="M58.42,240.07a6.8,6.8,0,0,0,2-2.13Z" style="fill:#263238"></path><path d="M63.26,244.8c-.51-.68-3-4.09-3.15-4.28s-1.67.13-1.88-.19.84-1.55,1.64-2.2a4.75,4.75,0,0,0-.73,1.17,1.14,1.14,0,0,0-.08.27c0,.12,0,.2.07.23.31.1,1-.14,1.29,0S63.08,244.47,63.26,244.8Z" style="opacity:0.1"></path><path d="M61.7,248.66v2.74h0l-5.39-.82c-.26,0-1.08,1.27-1.46,1.2s-.66-3-.14-3.47a.2.2,0,0,1,.14-.06c.43,0,1,.92,1.24.94S61.7,248.66,61.7,248.66Z" style="fill:#407BFF"></path><path d="M54.78,251.45a6.86,6.86,0,0,0-.09-2.92Z" style="fill:#263238"></path><path d="M61.68,251.4l-5.39-.82c-.26,0-1.08,1.27-1.46,1.2s-.66-3-.14-3.47a2.64,2.64,0,0,0,.06,2.14.91.91,0,0,0,.13.22c.08.12.16.18.22.16.31-.06.78-.7,1.22-.67S61.39,251.33,61.68,251.4Z" style="opacity:0.1"></path><path d="M60.71,260.39c-.16.11,0,.94-.05,1.47a.57.57,0,0,1-.13.41c-.32.21-3-2-2.5-2.49.31-.31,1.38-.08,1.54-.22s1.53-1.79,2.53-3a0,0,0,0,1,0,0c.6-.73,1.07-1.32,1.07-1.32l1.93,1.94S60.92,260.22,60.71,260.39Z" style="fill:#407BFF"></path><path d="M60.26,262.08a6.79,6.79,0,0,0-2.13-2Z" style="fill:#263238"></path><path d="M60.66,261.86a.57.57,0,0,1-.13.41c-.32.21-3-2-2.5-2.49.31-.31,1.38-.08,1.54-.22s1.53-1.79,2.53-3A25.36,25.36,0,0,1,59.89,260c-.25.11-.93.11-1,.45a.36.36,0,0,0,.06.22,3.45,3.45,0,0,0,.5.7,3.67,3.67,0,0,0,.66.61l.1.07c.13.08.23.11.3.08A.47.47,0,0,0,60.66,261.86Z" style="opacity:0.1"></path><path d="M72,265.66c0,.09-.24.18-.55.25-1,.23-3,.3-3-.25s.92-1,.94-1.24-.24-2.87-.4-4.45h0l-.12-1.17h2.73l-.82,5.4C70.73,264.46,72.05,265.28,72,265.66Z" style="fill:#407BFF"></path><path d="M71.65,265.71a6.91,6.91,0,0,0-2.93.09Z" style="fill:#263238"></path><path d="M71.42,265.91c-1,.23-3,.3-3-.25s.92-1,.94-1.24-.24-2.87-.4-4.45c.29,1.47.86,4.34.83,4.46s-.75.91-.55,1.16a.13.13,0,0,0,.07.05,1.1,1.1,0,0,0,.4.13A9.31,9.31,0,0,0,71.42,265.91Z" style="opacity:0.1"></path><path d="M81.57,261.43c-.61.69-1.34,1.29-1.6,1s-.08-1.38-.22-1.54-3.22-2.7-4.1-3.41h0l-.25-.2,1.94-1.93,3.24,4.4c.16.21,1.67-.13,1.88.18S82.11,260.81,81.57,261.43Z" style="fill:#407BFF"></path><path d="M82.27,260.23a6.91,6.91,0,0,0-2,2.13Z" style="fill:#263238"></path><path d="M81.57,261.43c-.61.69-1.34,1.29-1.6,1s-.08-1.38-.22-1.54-3.22-2.7-4.1-3.41h0a54.85,54.85,0,0,1,4.61,3.15c0,.25-.06,1.23.25,1.26a.39.39,0,0,0,.2,0A4.19,4.19,0,0,0,81.57,261.43Z" style="opacity:0.1"></path><path d="M85.85,252.05c-.23,0-.5-.26-.75-.51s-.39-.42-.49-.43c-.35,0-5.62.53-5.62.53V248.9l1.11.17h0l4.28.65c.26,0,1.09-1.27,1.46-1.2S86.57,252.05,85.85,252.05Z" style="fill:#407BFF"></path><path d="M85.9,248.85a6.86,6.86,0,0,0,.09,2.92Z" style="fill:#263238"></path><path d="M85.85,252.05c-.23,0-.5-.26-.75-.51.2,0,.45,0,.68,0a.2.2,0,0,0,.12-.08.54.54,0,0,0,.08-.17,3,3,0,0,0,0-1.3,2,2,0,0,0-.13-.39h0c0-.09-.1-.14-.16-.14-.35,0-1,.74-1.47.67s-2.74-.72-4.07-1.09l4.28.65c.26,0,1.09-1.27,1.46-1.2S86.57,252.05,85.85,252.05Z" style="opacity:0.1"></path><path d="M82.65,240.52c-.3.31-1.38.08-1.54.22s-3.6,4.35-3.6,4.35l-1.94-1.94.42-.31h0l4-2.93c.21-.16-.13-1.67.19-1.88.16-.11.94.42,1.6,1h0C82.39,239.63,82.9,240.28,82.65,240.52Z" style="fill:#407BFF"></path><path d="M80.42,238.22a6.79,6.79,0,0,0,2.13,2Z" style="fill:#263238"></path><path d="M81.76,239.05a2.75,2.75,0,0,0-.78-.31l-.17,0c-.16,0-.27.07-.29.22-.07.4.18,1.13,0,1.36s-4.35,2.45-4.52,2.54l4-2.93c.21-.16-.13-1.67.19-1.88C80.32,237.92,81.1,238.45,81.76,239.05Z" style="opacity:0.1"></path><g style="opacity:0.1"><path d="M67,257.48c-.11.26-.55.3-1,.11s-.67-.56-.55-.82.55-.3,1-.1S67.15,257.23,67,257.48Z"></path><path d="M66.75,258.39a2.88,2.88,0,0,1-1.68-.8.9.9,0,0,1-.27-1c.18-.45.61-.44,1-.48,0,0,0,0,0,0-.71-.08-1.56.21-1.43,1.08.15,1,1.44,1.45,2.33,1.39C66.82,258.55,66.85,258.4,66.75,258.39Z"></path><path d="M68.64,242.93c0,.27-.44.57-1.06.65s-1.15-.07-1.19-.35.44-.57,1.06-.66S68.6,242.65,68.64,242.93Z"></path><path d="M67,244.17a2.37,2.37,0,0,1-.93-.3.7.7,0,0,1-.18-1,2.13,2.13,0,0,1,1.52-.82,0,0,0,0,0,0-.06c-.71,0-1.76.39-2,1.15-.3,1,.9,1.16,1.59,1.15C67.1,244.28,67.09,244.18,67,244.17Z"></path><path d="M77.37,246.46c0,.28-.39.49-.86.48s-.84-.25-.83-.53.39-.5.86-.48S77.38,246.17,77.37,246.46Z"></path><path d="M76.44,247.58a3.5,3.5,0,0,1-1.31-.65c-.66-.71.36-1.15.92-1.31,0,0,0-.05,0-.05-.6.05-1.53.43-1.4,1.19s1.15,1.07,1.79,1C76.5,247.71,76.5,247.61,76.44,247.58Z"></path><path d="M63.86,254.34c0,.21-.32.38-.68.36s-.64-.21-.63-.43.31-.38.67-.36S63.87,254.12,63.86,254.34Z"></path><path d="M63.11,255.19a2.76,2.76,0,0,1-1-.53c-.5-.56.3-.88.74-1,0,0,0,0,0,0-.47,0-1.2.3-1.11.89s.87.85,1.36.78A.06.06,0,0,0,63.11,255.19Z"></path><path d="M79.53,254.61c.06.35-.36.71-.93.81s-1.08-.1-1.14-.44.35-.71.93-.81S79.47,254.27,79.53,254.61Z"></path><path d="M77.48,254s0,0,0,0c-.54.4-1.3,1.07-.76,1.8a1.63,1.63,0,0,0,2,.32s0-.11,0-.11a2.66,2.66,0,0,1-1.48-.18C76.35,255.4,77,254.5,77.48,254Z"></path></g><path d="M229.66,277.21l4.73-11.29c.22-.51-2-2.85-1.63-3.56s7.43.41,7.06,1.85c-.23.87-2.38,1.58-2.53,2-.25.69-2.14,12.45-2.14,12.45Z" style="fill:#407BFF"></path><path d="M233.43,262.43s3.5,1.63,5.9,1.35" style="fill:#263238"></path><path d="M229.66,277.21l4.73-11.29c.22-.51-2-2.85-1.63-3.56s7.43.41,7.06,1.85c-.23.87-2.38,1.58-2.53,2-.25.69-2.14,12.45-2.14,12.45Z" style="opacity:0.1"></path><path d="M213.42,281.45l-4.64-11.33c-.21-.51-3.42-.61-3.67-1.36s5.55-5,6.3-3.68c.45.77-.57,2.8-.38,3.19.31.67,7.29,10.32,7.29,10.32Z" style="fill:#407BFF"></path><path d="M205.63,268.33s3.62-1.32,5.13-3.21" style="fill:#263238"></path><path d="M213.42,281.45l-4.64-11.33c-.21-.51-3.42-.61-3.67-1.36s5.55-5,6.3-3.68c.45.77-.57,2.8-.38,3.19.31.67,7.29,10.32,7.29,10.32Z" style="opacity:0.1"></path><path d="M204.93,295.93l-11.29-4.73c-.51-.21-2.85,2-3.56,1.64s.42-7.44,1.85-7.06c.87.22,1.58,2.38,2,2.52.69.25,12.45,2.15,12.45,2.15Z" style="fill:#407BFF"></path><path d="M190.15,292.16s1.63-3.49,1.35-5.89" style="fill:#263238"></path><path d="M204.93,295.93l-11.29-4.73c-.51-.21-2.85,2-3.56,1.64s.42-7.44,1.85-7.06c.87.22,1.58,2.38,2,2.52.69.25,12.45,2.15,12.45,2.15Z" style="opacity:0.1"></path><path d="M209.17,312.17l-11.33,4.64c-.51.21-.61,3.42-1.36,3.68s-5-5.55-3.68-6.3c.77-.46,2.8.56,3.19.38.67-.31,10.32-7.29,10.32-7.29Z" style="fill:#407BFF"></path><path d="M196.05,320s-1.32-3.62-3.21-5.12" style="fill:#263238"></path><path d="M209.17,312.17l-11.33,4.64c-.51.21-.61,3.42-1.36,3.68s-5-5.55-3.68-6.3c.77-.46,2.8.56,3.19.38.67-.31,10.32-7.29,10.32-7.29Z" style="opacity:0.1"></path><path d="M223.65,320.66s-4.51,10.79-4.73,11.3,2,2.84,1.64,3.56-7.44-.42-7.06-1.86c.22-.86,2.38-1.58,2.52-2,.26-.7,2.15-12.46,2.15-12.46Z" style="fill:#407BFF"></path><path d="M219.88,335.45s-3.49-1.63-5.89-1.36" style="fill:#263238"></path><path d="M223.65,320.66s-4.51,10.79-4.73,11.3,2,2.84,1.64,3.56-7.44-.42-7.06-1.86c.22-.86,2.38-1.58,2.52-2,.26-.7,2.15-12.46,2.15-12.46Z" style="opacity:0.1"></path><path d="M239.89,316.42s4.44,10.83,4.65,11.33,3.41.62,3.67,1.37-5.55,5-6.3,3.68c-.46-.77.56-2.81.38-3.19-.31-.67-7.29-10.33-7.29-10.33Z" style="fill:#407BFF"></path><path d="M247.68,329.55s-3.62,1.32-5.12,3.21" style="fill:#263238"></path><path d="M239.89,316.42s4.44,10.83,4.65,11.33,3.41.62,3.67,1.37-5.55,5-6.3,3.68c-.46-.77.56-2.81.38-3.19-.31-.67-7.29-10.33-7.29-10.33Z" style="opacity:0.1"></path><path d="M248.38,301.94l11.3,4.73c.5.22,2.84-2,3.56-1.63s-.42,7.43-1.86,7.06c-.86-.23-1.58-2.38-2-2.53-.7-.25-12.46-2.14-12.46-2.14Z" style="fill:#407BFF"></path><path d="M263.17,305.71s-1.63,3.5-1.36,5.9" style="fill:#263238"></path><path d="M248.38,301.94l11.3,4.73c.5.22,2.84-2,3.56-1.63s-.42,7.43-1.86,7.06c-.86-.23-1.58-2.38-2-2.53-.7-.25-12.46-2.14-12.46-2.14Z" style="opacity:0.1"></path><path d="M244.14,285.7l11.33-4.64c.51-.21.62-3.42,1.37-3.67s5,5.55,3.68,6.3c-.77.45-2.81-.57-3.19-.39-.67.32-10.33,7.3-10.33,7.3Z" style="fill:#407BFF"></path><path d="M257.27,277.91s1.32,3.62,3.21,5.13" style="fill:#263238"></path><path d="M244.14,285.7l11.33-4.64c.51-.21.62-3.42,1.37-3.67s5,5.55,3.68,6.3c-.77.45-2.81-.57-3.19-.39-.67.32-10.33,7.3-10.33,7.3Z" style="opacity:0.1"></path><path d="M226.79,276s3.8-15.84,4-16.37-2.32-2.6-2.06-3.35,7.46-.48,7.27,1c-.12.89-2.19,1.86-2.29,2.28-.17.72-1.23,17.22-1.23,17.22Z" style="fill:#407BFF"></path><path d="M229.36,256.3s3.68,1.21,6,.65" style="fill:#263238"></path><path d="M210.93,282.86s-8.51-13.89-8.78-14.37-3.48-.2-3.83-.92,4.94-5.61,5.84-4.43c.55.72-.22,2.87,0,3.23.39.63,11.3,13.05,11.3,13.05Z" style="fill:#407BFF"></path><path d="M198.79,267.08s3.46-1.75,4.73-3.82" style="fill:#263238"></path><path d="M204.53,298.89s-15.83-3.79-16.36-3.95-2.61,2.32-3.36,2.06-.48-7.46,1-7.26c.89.12,1.87,2.18,2.29,2.28.72.17,17.21,1.23,17.21,1.23Z" style="fill:#407BFF"></path><path d="M184.8,296.32s1.2-3.68.64-6" style="fill:#263238"></path><path d="M211.35,314.75s-13.88,8.52-14.36,8.78-.2,3.48-.92,3.83-5.62-4.94-4.43-5.84c.71-.55,2.86.22,3.23,0,.63-.39,13-11.3,13-11.3Z" style="fill:#407BFF"></path><path d="M195.58,326.89s-1.75-3.46-3.82-4.73" style="fill:#263238"></path><path d="M227.39,321.15s-3.8,15.83-3.95,16.36,2.32,2.61,2.06,3.36-7.47.48-7.27-1c.12-.89,2.19-1.87,2.28-2.29.17-.72,1.23-17.21,1.23-17.21Z" style="fill:#407BFF"></path><path d="M224.82,340.88s-3.69-1.2-6-.64" style="fill:#263238"></path><path d="M243.25,314.33s8.51,13.88,8.78,14.36,3.48.21,3.83.92-5,5.62-5.85,4.43c-.54-.71.23-2.86,0-3.23-.39-.63-11.3-13-11.3-13Z" style="fill:#407BFF"></path><path d="M255.38,330.1s-3.45,1.76-4.73,3.82" style="fill:#263238"></path><path d="M249.64,298.29s15.84,3.8,16.37,3.95,2.6-2.32,3.35-2.06.48,7.47-1,7.27c-.89-.12-1.86-2.19-2.28-2.28-.72-.17-17.21-1.23-17.21-1.23Z" style="fill:#407BFF"></path><path d="M269.38,300.87s-1.21,3.68-.65,6" style="fill:#263238"></path><path d="M242.82,282.43s13.89-8.51,14.37-8.78.2-3.48.92-3.83,5.61,4.95,4.43,5.85c-.72.54-2.87-.23-3.23,0-.63.39-13,11.3-13,11.3Z" style="fill:#407BFF"></path><path d="M258.6,270.3s1.75,3.45,3.82,4.73" style="fill:#263238"></path><path d="M254.08,304.8c-3.48,14.88-17.62,25-32.74,21.45-9.08-2.12-16.53-7.29-20.13-14.95-2.39-5.1-3.08-11.3-1.41-18.43,4.19-17.86,19.71-25.43,34.51-22a25.46,25.46,0,0,1,15,9.66A30,30,0,0,1,254.08,304.8Z" style="fill:#407BFF"></path><path d="M254.08,304.8c-3.48,14.88-17.62,25-32.74,21.45-9.08-2.12-16.53-7.29-20.13-14.95,7.44,5.5,20.88,12.73,34.34,6.35C252,309.84,254,293,249.32,280.57A30,30,0,0,1,254.08,304.8Z" style="opacity:0.1"></path><path d="M224.43,278.18l-6.29,1.49s0-.27-.06-.73c-.21-2.63-.92-11.58-1-12.11s-3.51-1.81-3.54-2.71c0-.41,1.57-1.17,3.33-1.74,2.13-.69,4.54-1.07,4.76-.17s-1.55,2.86-1.48,3.35C220.3,266.38,224.43,278.18,224.43,278.18Z" style="fill:#407BFF"></path><path d="M214.28,263.82s4.39-.23,6.66-1.78Z" style="fill:#263238"></path><path d="M218.08,278.94c-.21-2.63-.92-11.58-1-12.11s-3.51-1.81-3.54-2.71c0-.41,1.57-1.17,3.33-1.74a4.78,4.78,0,0,0-1.5,1.14.72.72,0,0,0-.1.22c-.07.25,0,.45.32.65.74.51,2.29,1,2.5,1.64S218.11,278.57,218.08,278.94Z" style="opacity:0.1"></path><path d="M210.2,285.13l-3.39,5.5-.23-.19,0,0L197,282.28c-.49-.41-3.77,1.2-4.43.58-.45-.42,1.1-4,2.59-5.94.68-.88,1.33-1.4,1.78-1.12.87.52.94,3.12,1.32,3.41C198.93,279.71,210.2,285.13,210.2,285.13Z" style="fill:#407BFF"></path><path d="M192.87,282.15s2.94-3.26,3.44-6Z" style="fill:#263238"></path><path d="M206.54,290.4,197,282.28c-.49-.41-3.77,1.2-4.43.58-.45-.42,1.1-4,2.59-5.94a11.19,11.19,0,0,0-1,3.07,2.19,2.19,0,0,0,0,.66c0,.3.1.48.28.5.76.06,2.17-.84,3-.6S206,289.73,206.54,290.4Z" style="opacity:0.1"></path><path d="M205.05,300.11l1.48,6.29h0c-.71.06-12.2,1-12.81,1s-1.8,3.51-2.7,3.54-3.15-6.54-2.21-7.87a.5.5,0,0,1,.3-.22c1-.23,2.87,1.55,3.35,1.49C193.25,304.25,205.05,300.11,205.05,300.11Z" style="fill:#407BFF"></path><path d="M190.69,310.26s-.23-4.39-1.79-6.66Z" style="fill:#263238"></path><path d="M206.49,306.4c-.71.06-12.2,1-12.81,1s-1.8,3.51-2.7,3.54-3.15-6.54-2.21-7.87a6.22,6.22,0,0,0,1.3,4.87,3.08,3.08,0,0,0,.42.45c.24.21.46.3.6.24.66-.32,1.4-2,2.43-2.21S205.79,306.39,206.49,306.4Z" style="opacity:0.1"></path><path d="M209.13,327.55c-.29.34.48,2.18.68,3.42a1.28,1.28,0,0,1-.08,1c-.61.65-8-2.94-7.07-4.38.53-.87,3.12-.93,3.42-1.32s2.53-4.95,4.16-8.3c0,0,0,0,0,0,1-2,1.74-3.59,1.74-3.59l5.5,3.39Z" style="fill:#407BFF"></path><path d="M209,331.68s-3.27-2.95-6-3.45Z" style="fill:#263238"></path><path d="M209.81,331a1.28,1.28,0,0,1-.08,1c-.61.65-8-2.94-7.07-4.38.53-.87,3.12-.93,3.42-1.32s2.53-4.95,4.16-8.3c-1,3.29-2.84,8.72-3.22,9s-2.08.77-2.06,1.58a1,1,0,0,0,.26.47,8.3,8.3,0,0,0,1.53,1.33,9.65,9.65,0,0,0,1.84,1.06l.27.1c.34.12.59.13.72,0A.91.91,0,0,0,209.81,331Z" style="opacity:0.1"></path><path d="M237.84,333.56c0,.22-.45.54-1.14.87-2.15,1.07-6.65,2.29-7,1-.23-1,1.56-2.87,1.48-3.35s-2.1-6.46-3.34-10h0c-.53-1.54-.91-2.62-.91-2.62l6.29-1.49s1,12.22,1,12.85S237.81,332.66,237.84,333.56Z" style="fill:#407BFF"></path><path d="M237.12,333.86s-4.39.22-6.66,1.78Z" style="fill:#263238"></path><path d="M236.7,334.43c-2.15,1.07-6.65,2.29-7,1-.23-1,1.56-2.87,1.48-3.35s-2.1-6.46-3.34-10c1.48,3.21,4.34,9.48,4.32,9.78s-1.21,2.48-.63,3a.6.6,0,0,0,.21.09,3.39,3.39,0,0,0,1,.07A20.94,20.94,0,0,0,236.7,334.43Z" style="opacity:0.1"></path><path d="M257.58,318.66c-1,1.9-2.37,3.68-3.12,3.22s-.93-3.12-1.32-3.41c-.58-.43-8.86-4.45-11.28-5.6h0l-.66-.31,3.4-5.5,9.81,8.35c.48.41,3.76-1.2,4.42-.59C259.15,315.1,258.5,316.93,257.58,318.66Z" style="fill:#407BFF"></path><path d="M258.54,315.52s-2.94,3.27-3.45,6Z" style="fill:#263238"></path><path d="M257.58,318.66c-1,1.9-2.37,3.68-3.12,3.22s-.93-3.12-1.32-3.41c-.58-.43-8.86-4.45-11.28-5.6h0s12.09,4.19,12.31,4.74.53,2.85,1.25,2.76a.93.93,0,0,0,.44-.18A10.35,10.35,0,0,0,257.58,318.66Z" style="opacity:0.1"></path><path d="M262.33,294.8c-.52.12-1.3-.33-2-.76s-1.14-.76-1.37-.72c-.83.11-12.63,4.25-12.63,4.25l-1.48-6.29,2.64-.21h0c3.63-.29,9.74-.77,10.16-.82.63-.06,1.82-3.51,2.71-3.55S264,294.41,262.33,294.8Z" style="fill:#407BFF"></path><path d="M260.72,287.42s.23,4.39,1.78,6.66Z" style="fill:#263238"></path><path d="M262.33,294.8c-.52.12-1.3-.33-2-.76a11.29,11.29,0,0,0,1.56-.31.43.43,0,0,0,.24-.24,1.33,1.33,0,0,0,.08-.44,7.08,7.08,0,0,0-.8-3,3.92,3.92,0,0,0-.51-.81h0c-.16-.17-.31-.26-.44-.23-.79.2-1.81,2.23-3,2.33-.85.06-6.68-.16-9.93-.29,3.63-.29,9.74-.77,10.16-.82.63-.06,1.82-3.51,2.71-3.55S264,294.41,262.33,294.8Z" style="opacity:0.1"></path><path d="M248.75,270.08c-.53.87-3.12.93-3.42,1.32-.5.67-5.93,11.93-5.93,11.93l-5.49-3.39s.3-.36.81-.94h0l7.54-8.86c.39-.48-1.22-3.77-.6-4.43.31-.33,2.4.45,4.24,1.48h0C247.66,268.17,249.18,269.38,248.75,270.08Z" style="fill:#407BFF"></path><path d="M242.39,266s3.26,2.95,6,3.45Z" style="fill:#263238"></path><path d="M245.91,267.18a6.54,6.54,0,0,0-2-.28,1.26,1.26,0,0,0-.4,0c-.36.1-.57.29-.55.65.06,1,1,2.5.74,3.13s-8.67,8-9,8.27l7.54-8.86c.39-.48-1.22-3.77-.6-4.43C242,265.37,244.07,266.15,245.91,267.18Z" style="opacity:0.1"></path><g style="opacity:0.1"><path d="M217.88,315.81c-.28.6-1.31.71-2.32.25s-1.58-1.32-1.3-1.92,1.31-.72,2.31-.26S218.15,315.2,217.88,315.81Z"></path><path d="M217.21,318a6.72,6.72,0,0,1-4-1.88,2.08,2.08,0,0,1-.64-2.32c.41-1.07,1.42-1,2.4-1.13,0,0,.07-.09,0-.09-1.67-.19-3.67.5-3.36,2.55.36,2.41,3.4,3.42,5.5,3.26C217.38,318.33,217.44,318,217.21,318Z"></path><path d="M221.67,281.48c.09.65-1,1.34-2.49,1.54s-2.73-.17-2.82-.83,1-1.35,2.5-1.54S221.58,280.82,221.67,281.48Z"></path><path d="M217.88,284.41a5.82,5.82,0,0,1-2.19-.71,1.62,1.62,0,0,1-.44-2.37,5,5,0,0,1,3.58-1.94.07.07,0,1,0,0-.13c-1.66.09-4.15.9-4.69,2.69-.7,2.31,2.13,2.75,3.76,2.73C218,284.68,218,284.44,217.88,284.41Z"></path><path d="M242.26,289.8c0,.66-.93,1.18-2,1.15s-2-.59-2-1.25.92-1.18,2-1.15S242.27,289.14,242.26,289.8Z"></path><path d="M240.06,292.46c-1-.44-2.29-.69-3.08-1.54-1.57-1.67.85-2.7,2.17-3.09.07,0,.06-.12,0-.12-1.43.13-3.62,1-3.31,2.81s2.71,2.53,4.21,2.27A.17.17,0,0,0,240.06,292.46Z"></path><path d="M210.38,308.39c0,.51-.73.89-1.59.85s-1.52-.49-1.49-1,.74-.89,1.59-.85S210.41,307.88,210.38,308.39Z"></path><path d="M208.63,310.41a6.7,6.7,0,0,1-2.36-1.25c-1.18-1.33.72-2.08,1.75-2.36a0,0,0,0,0,0-.09c-1.12.07-2.83.71-2.63,2.11s2.06,2,3.22,1.85A.14.14,0,0,0,208.63,310.41Z"></path><path d="M247.35,309.05c.14.81-.84,1.65-2.19,1.89s-2.55-.23-2.69-1,.83-1.66,2.18-1.9S247.21,308.23,247.35,309.05Z"></path><path d="M242.51,307.69a0,0,0,0,0,0-.06c-1.28,1-3.06,2.54-1.78,4.26a3.83,3.83,0,0,0,4.82.76.15.15,0,0,0-.1-.26,6.45,6.45,0,0,1-3.48-.43C239.85,310.9,241.3,308.77,242.51,307.69Z"></path></g><path d="M105.33,48.26l2.45-5.85c.11-.26-1-1.47-.85-1.84s3.85.22,3.66,1c-.12.45-1.24.82-1.31,1S108.17,49,108.17,49Z" style="fill:#407BFF"></path><path d="M107.28,40.61a7.35,7.35,0,0,0,3,.7" style="fill:#263238"></path><path d="M105.33,48.26l2.45-5.85c.11-.26-1-1.47-.85-1.84s3.85.22,3.66,1c-.12.45-1.24.82-1.31,1S108.17,49,108.17,49Z" style="opacity:0.1"></path><path d="M96.93,50.45l-2.4-5.86c-.1-.27-1.76-.32-1.9-.71s2.87-2.56,3.26-1.9c.24.4-.29,1.45-.2,1.65S99.47,49,99.47,49Z" style="fill:#407BFF"></path><path d="M92.9,43.66A7.3,7.3,0,0,0,95.56,42" style="fill:#263238"></path><path d="M96.93,50.45l-2.4-5.86c-.1-.27-1.76-.32-1.9-.71s2.87-2.56,3.26-1.9c.24.4-.29,1.45-.2,1.65S99.47,49,99.47,49Z" style="opacity:0.1"></path><path d="M92.54,57.94,86.7,55.49c-.26-.11-1.47,1-1.84.85s.22-3.85,1-3.65c.45.11.82,1.23,1,1.3s6.44,1.11,6.44,1.11Z" style="fill:#407BFF"></path><path d="M84.89,56a7.3,7.3,0,0,0,.71-3.05" style="fill:#263238"></path><path d="M92.54,57.94,86.7,55.49c-.26-.11-1.47,1-1.84.85s.22-3.85,1-3.65c.45.11.82,1.23,1,1.3s6.44,1.11,6.44,1.11Z" style="opacity:0.1"></path><path d="M94.74,66.34l-5.87,2.4c-.26.11-.31,1.77-.7,1.9s-2.57-2.87-1.9-3.26c.39-.24,1.45.29,1.65.2s5.34-3.77,5.34-3.77Z" style="fill:#407BFF"></path><path d="M88,70.37a7.21,7.21,0,0,0-1.66-2.65" style="fill:#263238"></path><path d="M94.74,66.34l-5.87,2.4c-.26.11-.31,1.77-.7,1.9s-2.57-2.87-1.9-3.26c.39-.24,1.45.29,1.65.2s5.34-3.77,5.34-3.77Z" style="opacity:0.1"></path><path d="M102.22,70.73l-2.44,5.84c-.11.26,1,1.47.84,1.84s-3.84-.21-3.65-1c.12-.44,1.23-.82,1.31-1,.13-.36,1.11-6.45,1.11-6.45Z" style="fill:#407BFF"></path><path d="M100.28,78.38a7.3,7.3,0,0,0-3-.71" style="fill:#263238"></path><path d="M102.22,70.73l-2.44,5.84c-.11.26,1,1.47.84,1.84s-3.84-.21-3.65-1c.12-.44,1.23-.82,1.31-1,.13-.36,1.11-6.45,1.11-6.45Z" style="opacity:0.1"></path><path d="M110.62,68.54,113,74.4c.1.26,1.76.31,1.9.7s-2.88,2.57-3.26,1.91c-.24-.4.29-1.45.19-1.66S108.09,70,108.09,70Z" style="fill:#407BFF"></path><path d="M114.65,75.32A7.44,7.44,0,0,0,112,77" style="fill:#263238"></path><path d="M110.62,68.54,113,74.4c.1.26,1.76.31,1.9.7s-2.88,2.57-3.26,1.91c-.24-.4.29-1.45.19-1.66S108.09,70,108.09,70Z" style="opacity:0.1"></path><path d="M115,61.05l5.85,2.44c.26.11,1.47-1,1.84-.84s-.22,3.84-1,3.65c-.45-.12-.82-1.23-1-1.31s-6.44-1.11-6.44-1.11Z" style="fill:#407BFF"></path><path d="M122.66,63a7.3,7.3,0,0,0-.7,3" style="fill:#263238"></path><path d="M115,61.05l5.85,2.44c.26.11,1.47-1,1.84-.84s-.22,3.84-1,3.65c-.45-.12-.82-1.23-1-1.31s-6.44-1.11-6.44-1.11Z" style="opacity:0.1"></path><path d="M112.82,52.65l5.86-2.4c.27-.11.32-1.77.71-1.9s2.56,2.87,1.9,3.26c-.4.23-1.45-.3-1.65-.2s-5.34,3.77-5.34,3.77Z" style="fill:#407BFF"></path><path d="M119.61,48.62a7.29,7.29,0,0,0,1.66,2.65" style="fill:#263238"></path><path d="M112.82,52.65l5.86-2.4c.27-.11.32-1.77.71-1.9s2.56,2.87,1.9,3.26c-.4.23-1.45-.3-1.65-.2s-5.34,3.77-5.34,3.77Z" style="opacity:0.1"></path><path d="M103.85,47.65s2-8.19,2-8.47-1.2-1.34-1.07-1.73,3.87-.25,3.76.52c-.06.46-1.13,1-1.18,1.18-.08.37-.63,8.9-.63,8.9Z" style="fill:#407BFF"></path><path d="M105.18,37.44a7.28,7.28,0,0,0,3.12.34" style="fill:#263238"></path><path d="M95.64,51.18S91.24,44,91.1,43.75s-1.8-.11-2-.48,2.56-2.9,3-2.29c.28.37-.12,1.48,0,1.67S98,49.4,98,49.4Z" style="fill:#407BFF"></path><path d="M89.37,43a7.39,7.39,0,0,0,2.44-2" style="fill:#263238"></path><path d="M92.34,59.47s-8.19-2-8.47-2-1.34,1.2-1.73,1.06-.25-3.86.51-3.76c.46.07,1,1.13,1.19,1.18s8.9.64,8.9.64Z" style="fill:#407BFF"></path><path d="M82.13,58.14A7.39,7.39,0,0,0,82.46,55" style="fill:#263238"></path><path d="M95.86,67.67s-7.18,4.41-7.43,4.54-.1,1.8-.47,2-2.91-2.55-2.29-3c.37-.28,1.48.12,1.67,0s6.74-5.85,6.74-5.85Z" style="fill:#407BFF"></path><path d="M87.7,74a7.3,7.3,0,0,0-2-2.45" style="fill:#263238"></path><path d="M104.16,71s-2,8.19-2,8.46,1.2,1.35,1.07,1.74-3.86.25-3.76-.52c.06-.46,1.13-1,1.18-1.18.09-.37.64-8.9.64-8.9Z" style="fill:#407BFF"></path><path d="M102.83,81.19a7.34,7.34,0,0,0-3.13-.34" style="fill:#263238"></path><path d="M112.36,67.45s4.4,7.18,4.54,7.43,1.8.11,2,.48-2.55,2.9-3,2.29c-.28-.37.12-1.48,0-1.67S110,69.23,110,69.23Z" style="fill:#407BFF"></path><path d="M118.64,75.61a7.39,7.39,0,0,0-2.45,2" style="fill:#263238"></path><path d="M115.67,59.16s8.19,2,8.46,2,1.35-1.2,1.74-1.06.24,3.86-.52,3.76c-.46-.07-1-1.14-1.18-1.19-.38-.08-8.9-.63-8.9-.63Z" style="fill:#407BFF"></path><path d="M125.87,60.49a7.36,7.36,0,0,0-.33,3.13" style="fill:#263238"></path><path d="M112.14,51s7.18-4.41,7.43-4.54.1-1.81.47-2,2.91,2.56,2.3,3c-.37.28-1.49-.12-1.67,0-.33.2-6.75,5.84-6.75,5.84Z" style="fill:#407BFF"></path><path d="M120.3,44.68a7.45,7.45,0,0,0,2,2.45" style="fill:#263238"></path><path d="M118,62.53c-1.8,7.69-9.11,12.92-16.93,11.09-4.7-1.1-8.55-3.77-10.41-7.73a14.32,14.32,0,0,1-.73-9.54C92.05,47.12,100.08,43.2,107.73,45a13.11,13.11,0,0,1,7.77,5A15.53,15.53,0,0,1,118,62.53Z" style="fill:#407BFF"></path><path d="M118,62.53c-1.8,7.69-9.11,12.92-16.93,11.09-4.7-1.1-8.55-3.77-10.41-7.73,3.84,2.84,10.8,6.58,17.76,3.28,8.52-4,9.55-12.77,7.12-19.18A15.53,15.53,0,0,1,118,62.53Z" style="opacity:0.1"></path><path d="M102.63,48.76l-3.26.77s0-.14,0-.38c-.11-1.36-.48-6-.51-6.27S97,42,97,41.48c0-.21.81-.6,1.72-.9,1.1-.35,2.35-.55,2.46-.08s-.8,1.48-.76,1.73C100.49,42.66,102.63,48.76,102.63,48.76Z" style="fill:#407BFF"></path><path d="M97.38,41.33a8.37,8.37,0,0,0,3.44-.92Z" style="fill:#263238"></path><path d="M99.35,49.15c-.11-1.36-.48-6-.51-6.27S97,42,97,41.48c0-.21.81-.6,1.72-.9a2.4,2.4,0,0,0-.77.59.21.21,0,0,0,0,.12c0,.13,0,.23.16.33.38.27,1.19.51,1.29.85S99.36,49,99.35,49.15Z" style="opacity:0.1"></path><path d="M95.27,52.35l-1.76,2.84-.12-.09,0,0-4.93-4.21c-.25-.2-2,.63-2.29.31s.57-2.09,1.34-3.08c.35-.45.69-.72.92-.58.45.28.48,1.62.68,1.77S95.27,52.35,95.27,52.35Z" style="fill:#407BFF"></path><path d="M86.3,50.81a8.34,8.34,0,0,0,1.78-3.09Z" style="fill:#263238"></path><path d="M93.37,55.08l-4.93-4.21c-.25-.2-2,.63-2.29.31s.57-2.09,1.34-3.08a5.8,5.8,0,0,0-.55,1.59,2.06,2.06,0,0,0,0,.34c0,.16,0,.25.14.26.4,0,1.13-.43,1.54-.31A68.39,68.39,0,0,1,93.37,55.08Z" style="opacity:0.1"></path><path d="M92.6,60.1l.77,3.25h0l-6.63.53c-.32,0-.93,1.82-1.39,1.84s-1.63-3.39-1.15-4.07a.28.28,0,0,1,.16-.12c.51-.12,1.48.8,1.73.77C86.5,62.24,92.6,60.1,92.6,60.1Z" style="fill:#407BFF"></path><path d="M85.17,65.35a8.21,8.21,0,0,0-.92-3.44Z" style="fill:#263238"></path><path d="M93.35,63.35l-6.63.53c-.32,0-.93,1.82-1.39,1.84s-1.63-3.39-1.15-4.07a3.2,3.2,0,0,0,.68,2.51,1,1,0,0,0,.21.23c.13.12.24.16.31.13.35-.16.73-1,1.26-1.14S93,63.35,93.35,63.35Z" style="opacity:0.1"></path><path d="M94.72,74.29c-.16.18.24,1.13.35,1.77a.64.64,0,0,1,0,.52c-.31.34-4.11-1.52-3.65-2.26.27-.45,1.61-.48,1.76-.68s1.31-2.56,2.16-4.3v0c.51-1,.9-1.86.9-1.86L99,69.22S94.92,74,94.72,74.29Z" style="fill:#407BFF"></path><path d="M94.66,76.42a8.34,8.34,0,0,0-3.09-1.78Z" style="fill:#263238"></path><path d="M95.07,76.06a.64.64,0,0,1,0,.52c-.31.34-4.11-1.52-3.65-2.26.27-.45,1.61-.48,1.76-.68s1.31-2.56,2.16-4.3A30.92,30.92,0,0,1,93.62,74c-.26.21-1.07.4-1.06.82a.44.44,0,0,0,.13.24,4.08,4.08,0,0,0,.79.69,5.68,5.68,0,0,0,1,.55l.13,0c.18.06.31.07.38,0A.56.56,0,0,0,95.07,76.06Z" style="opacity:0.1"></path><path d="M109.56,77.4c0,.11-.23.28-.58.45-1.12.55-3.45,1.19-3.61.54s.81-1.49.77-1.73-1.09-3.35-1.73-5.17h0c-.27-.79-.47-1.35-.47-1.35l3.25-.77s.51,6.32.53,6.64S109.55,76.93,109.56,77.4Z" style="fill:#407BFF"></path><path d="M109.19,77.55a8.28,8.28,0,0,0-3.44.93Z" style="fill:#263238"></path><path d="M109,77.85c-1.12.55-3.45,1.19-3.61.54s.81-1.49.77-1.73-1.09-3.35-1.73-5.17c.77,1.66,2.25,4.9,2.24,5.06s-.63,1.28-.33,1.53a.23.23,0,0,0,.11,0,1.46,1.46,0,0,0,.5,0A10.88,10.88,0,0,0,109,77.85Z" style="opacity:0.1"></path><path d="M119.77,69.69c-.53,1-1.22,1.91-1.61,1.67s-.48-1.62-.68-1.76-4.58-2.3-5.84-2.9h0l-.34-.16,1.76-2.84L118.13,68c.25.21,2-.63,2.29-.31C120.58,67.85,120.25,68.8,119.77,69.69Z" style="fill:#407BFF"></path><path d="M120.27,68.07a8.34,8.34,0,0,0-1.78,3.09Z" style="fill:#263238"></path><path d="M119.77,69.69c-.53,1-1.22,1.91-1.61,1.67s-.48-1.62-.68-1.76-4.58-2.3-5.84-2.9h0s6.26,2.17,6.37,2.45.27,1.48.65,1.43a.49.49,0,0,0,.22-.09A4.8,4.8,0,0,0,119.77,69.69Z" style="opacity:0.1"></path><path d="M122.23,57.35c-.27.07-.67-.17-1-.39a2.23,2.23,0,0,0-.7-.38c-.43.07-6.53,2.2-6.53,2.2l-.77-3.25,1.37-.11h0c1.88-.14,5-.4,5.25-.42s.94-1.82,1.4-1.84S123.08,57.15,122.23,57.35Z" style="fill:#407BFF"></path><path d="M121.4,53.53a8.27,8.27,0,0,0,.92,3.45Z" style="fill:#263238"></path><path d="M122.23,57.35c-.27.07-.67-.17-1-.39a6.43,6.43,0,0,0,.81-.16.22.22,0,0,0,.13-.12,1.37,1.37,0,0,0,0-.23,3.77,3.77,0,0,0-.41-1.54,2.19,2.19,0,0,0-.27-.42h0c-.08-.09-.16-.14-.23-.12-.41.1-.93,1.15-1.55,1.2-.44,0-3.46-.08-5.13-.15,1.88-.14,5-.4,5.25-.42s.94-1.82,1.4-1.84S123.08,57.15,122.23,57.35Z" style="opacity:0.1"></path><path d="M115.2,44.56c-.27.46-1.61.49-1.76.69s-3.07,6.17-3.07,6.17l-2.84-1.75.42-.49h0c1-1.23,3.74-4.38,3.9-4.58s-.63-1.94-.3-2.29c.16-.17,1.24.23,2.19.77h0C114.64,43.58,115.43,44.21,115.2,44.56Z" style="fill:#407BFF"></path><path d="M111.91,42.46A8.34,8.34,0,0,0,115,44.24Z" style="fill:#263238"></path><path d="M113.74,43.07a3.23,3.23,0,0,0-1-.15l-.21,0c-.18.05-.29.15-.28.34,0,.49.53,1.29.38,1.62S108.13,49,108,49.17c1-1.23,3.74-4.38,3.9-4.58s-.63-1.94-.3-2.29C111.71,42.13,112.79,42.53,113.74,43.07Z" style="opacity:0.1"></path><g style="opacity:0.1"><path d="M99.24,68.22c-.15.31-.68.37-1.2.13s-.82-.69-.68-1,.68-.37,1.2-.13S99.38,67.91,99.24,68.22Z"></path><path d="M98.89,69.33a3.47,3.47,0,0,1-2-1,1.08,1.08,0,0,1-.33-1.2c.21-.55.73-.53,1.24-.58a0,0,0,0,0,0,0c-.87-.1-1.9.26-1.74,1.32.18,1.25,1.76,1.77,2.84,1.69C99,69.52,99,69.34,98.89,69.33Z"></path><path d="M101.2,50.46c0,.34-.53.7-1.29.8s-1.41-.09-1.46-.43.54-.7,1.29-.8S101.15,50.12,101.2,50.46Z"></path><path d="M99.24,52a3,3,0,0,1-1.13-.37.84.84,0,0,1-.23-1.23,2.6,2.6,0,0,1,1.85-1,0,0,0,0,0,0-.07c-.86,0-2.14.47-2.42,1.4-.37,1.19,1.1,1.42,1.94,1.41C99.32,52.12,99.31,52,99.24,52Z"></path><path d="M111.85,54.77c0,.34-.48.6-1,.59s-1-.3-1-.65.48-.6,1-.59S111.86,54.42,111.85,54.77Z"></path><path d="M110.71,56.14a4.24,4.24,0,0,1-1.59-.79c-.81-.87.44-1.4,1.12-1.6,0,0,0-.07,0-.06-.74.06-1.87.52-1.71,1.45s1.4,1.31,2.18,1.17C110.79,56.3,110.79,56.18,110.71,56.14Z"></path><path d="M95.36,64.38c0,.27-.38.46-.82.44s-.79-.25-.77-.52.38-.46.82-.44S95.38,64.12,95.36,64.38Z"></path><path d="M94.46,65.42a3.18,3.18,0,0,1-1.22-.64c-.62-.69.36-1.08.9-1.22a0,0,0,0,0,0-.05c-.57,0-1.46.37-1.35,1.09s1.06,1.05,1.66,1A.08.08,0,0,0,94.46,65.42Z"></path><path d="M114.48,64.72c.08.42-.43.86-1.13,1s-1.32-.12-1.39-.54.43-.86,1.13-1S114.41,64.3,114.48,64.72Z"></path><path d="M112,64s0,0,0,0c-.66.5-1.59,1.31-.92,2.2a2,2,0,0,0,2.49.4.08.08,0,0,0,0-.14,3.34,3.34,0,0,1-1.8-.22C110.6,65.68,111.35,64.58,112,64Z"></path></g></g><g id="freepik--Character--inject-71"><path d="M230.19,444.25c-2.38.77-69.81.14-72.39-1.53-1-.62.44-22.86.44-23H200l0,.74s25.92,11.89,28.56,14S232.57,443.48,230.19,444.25Z" style="fill:#c7c7c7"></path><path d="M230,441.6c-11.46-.39-57.72-.87-69.07-.38-.1,0-.1.06,0,.07,11.34.63,57.6.74,69.07.5C230.25,441.78,230.25,441.61,230,441.6Z" style="fill:#263238"></path><path d="M204.84,419.91c-4.5-.89-10-.24-13.5,2.94-.14.12,0,.31.19.27a62.5,62.5,0,0,1,13.28-2.64A.29.29,0,0,0,204.84,419.91Z" style="fill:#263238"></path><path d="M208.08,421.9c-4.51-.88-10-.24-13.51,2.94-.13.12.05.31.19.27a63.35,63.35,0,0,1,13.29-2.64A.29.29,0,0,0,208.08,421.9Z" style="fill:#263238"></path><path d="M211.31,423.89c-4.5-.88-10-.24-13.5,2.94-.13.12,0,.31.19.27a63.86,63.86,0,0,1,13.29-2.64A.29.29,0,0,0,211.31,423.89Z" style="fill:#263238"></path><path d="M203,420.37H156.58s9.47-108.77,9.1-110.67c-.46-2.42-3.21-13.41-6.86-27.76-1.14-4.49-2.38-9.3-3.66-14.3-3.46-13.5-7.28-28.25-10.61-41.09-5-19.23-8.89-34.18-8.89-34.18H175s4.59,14.55,10.37,33.48c9.42,30.76,22,73.1,23.26,83.39C210.68,325.86,203,420.37,203,420.37Z" style="fill:#37474f"></path><path d="M201,412.44c-7.1-.15-5.06-.21-12.15-.28-3.48,0-26.3-.23-29.54.31a.07.07,0,0,0,0,.14c3.24.54,26.06.34,29.54.31,7.09-.07,5-.13,12.15-.27C201.11,412.64,201.11,412.44,201,412.44Z" style="fill:#263238"></path><path d="M142.82,197.72l7.23,25.5,7.06,25.56c2.35,8.52,4.62,17.06,6.88,25.61s4.5,17.09,6.58,25.69c.5,2.16,1,4.31,1.44,6.49.12.54.19,1.11.29,1.66,0,.31.06.64,0,.93l-.07.83-.25,3.3-1,13.22-2.08,26.43-2.14,26.42-2.26,26.42,1.77-26.45,1.87-26.45,1.93-26.44,1-13.22.25-3.31.06-.82c0-.27,0-.48,0-.73-.1-.53-.17-1.06-.29-1.6-.42-2.15-1-4.3-1.45-6.45-4.14-17.17-8.75-34.24-13.23-51.33Z" style="fill:#263238"></path><path d="M174.09,192.37c-2.73,21.15-12.62,56.29-16.42,85.06-8.88-34.86-22-85.06-22-85.06Z" style="fill:#263238"></path><path d="M76.42,444.25c2.38.77,62.71.14,65.28-1.53,1-.62-.44-22.86-.44-23H99.55l0,.74s-18.81,11.89-21.45,14S74,443.48,76.42,444.25Z" style="fill:#c7c7c7"></path><path d="M76.6,441.6c11.46-.39,50.61-.87,62-.38.09,0,.09.06,0,.07-11.35.63-50.51.74-62,.5C76.36,441.78,76.36,441.61,76.6,441.6Z" style="fill:#263238"></path><path d="M97.47,421c4.42-1.23,10-1,13.69,1.88.14.12,0,.32-.17.29a63.49,63.49,0,0,0-13.46-1.6A.29.29,0,0,1,97.47,421Z" style="fill:#263238"></path><path d="M94.39,423.22c4.42-1.23,10-1,13.69,1.88.15.11,0,.32-.16.28a63.47,63.47,0,0,0-13.46-1.59A.29.29,0,0,1,94.39,423.22Z" style="fill:#263238"></path><path d="M91.32,425.46c4.42-1.23,10-1,13.69,1.88.14.11,0,.31-.17.28A63.31,63.31,0,0,0,91.39,426,.29.29,0,0,1,91.32,425.46Z" style="fill:#263238"></path><path d="M174.09,192.37s-6,36.39-6.38,37.57c0,0-2.22,1.05-6.22,2.9L144.08,420.65l-46.69.19,25.75-228.47Z" style="fill:#37474f"></path><path d="M142.48,412.34c-7.14-.11-5.09-.18-12.22-.22-3.49,0-26.43-.12-29.69.43-.07,0-.07.14,0,.15,3.27.53,26.2.23,29.69.18,7.13-.1,5.09-.15,12.22-.33C142.61,412.55,142.61,412.35,142.48,412.34Z" style="fill:#263238"></path><path d="M169.65,228.81a85.56,85.56,0,0,0-13.34,7,.15.15,0,0,0,.14.27c4.5-2.19,9.1-4.29,13.48-6.73A.3.3,0,0,0,169.65,228.81Z" style="fill:#263238"></path><path d="M167.94,208c-.74,4.35-1.15,8.78-1.64,13.16-.11,1.06-.24,2.11-.35,3.16a6.17,6.17,0,0,1-.76,2.77c-.95,1.47-2.64,2.16-4.18,2.83-.18.08-.1.36.09.3a10.21,10.21,0,0,0,4.44-2.35c1.4-1.48,1.35-3.72,1.57-5.63a121,121,0,0,0,1-14.22A.1.1,0,0,0,167.94,208Z" style="fill:#263238"></path><path d="M162.64,209.3c-.15,3.13-.5,6.27-.76,9.4-.13,1.54-.24,3.09-.34,4.64s-.28,3.18-.23,4.76c0,.1.18.13.2,0,.25-1.49.29-3,.41-4.55s.24-3.17.33-4.76c.18-3.17.26-6.36.55-9.52C162.81,209.19,162.65,209.2,162.64,209.3Z" style="fill:#263238"></path><polygon points="160.54 237.5 158.03 258.86 155.43 280.2 150.06 322.87 144.46 365.5 141.57 386.81 138.59 408.11 141.09 386.75 143.69 365.41 149.07 322.74 154.67 280.1 157.55 258.79 160.54 237.5" style="fill:#263238"></polygon><path d="M160.5,141.17c12.57,8.81,33.46,20.25,42.28,21.4,9.81,1.28,30.37-9,45.21-17.54,3.23-1.87-11.72-26.8-15.45-25.35-8.71,3.38-25.68,15.49-31.77,16.84-4,.88-22.74-4.71-33.52-7C150.1,125.94,151.66,135,160.5,141.17Z" style="fill:#c95f50"></path><path d="M241.93,147.34c2.53-1,13.29-4.65,14.56-6.93s.53-14,.3-19.92-1.91-7-4-6.83-1.94,12.59-1.94,12.59,4.11-16.75,4.73-20.94,2.67-13.89-.84-15.15c-1.58-.56-3.06,2.13-3.06,2.13s1-4.08-1-4.64c-2.31-.64-3.44,2.61-3.44,2.61s.41-2.54-1.45-2.53c-4.16,0-5.59,15.87-5.59,15.87s5.41-12.29,2-12.55c-4.7-.35-8.9,24.56-10.84,27.22a17.67,17.67,0,0,1-4.93,4.32Z" style="fill:#c95f50"></path><path d="M253.88,113.71a1.82,1.82,0,0,0-1.56.62,5.23,5.23,0,0,0-.88,1.48,19.45,19.45,0,0,0-1,3.42c-.5,2.36-.83,4.76-1.35,7.16a29.13,29.13,0,0,1,.54-7.33,13.39,13.39,0,0,1,1.2-3.53,4.69,4.69,0,0,1,1.19-1.51A1.91,1.91,0,0,1,253.88,113.71Z" style="fill:#263238"></path><path d="M251.73,92.29c-.35,1.72-.77,3.41-1.19,5.11s-.87,3.38-1.31,5.07l-1.37,5q-.69,2.52-1.34,5.07a38,38,0,0,1,.72-5.21c.32-1.73.75-3.43,1.19-5.12s.94-3.38,1.5-5S251.05,93.91,251.73,92.29Z" style="fill:#263238"></path><path d="M242.22,108.75a35.14,35.14,0,0,1,.48-4.81,45.14,45.14,0,0,1,1-4.72,44,44,0,0,1,1.51-4.59,33.43,33.43,0,0,1,2-4.37c-.47,1.54-1,3-1.45,4.58s-.91,3.06-1.31,4.6-.81,3.08-1.21,4.63S242.59,107.18,242.22,108.75Z" style="fill:#263238"></path><path d="M238.18,106.46a32.06,32.06,0,0,1,4.43-14.8c-.78,2.49-1.61,4.9-2.32,7.37S238.88,104,238.18,106.46Z" style="fill:#263238"></path><path d="M224.15,123.26,238.85,153s-25.9,12.21-34.33,11.47-32.71-13-45.64-23.2-3-14,5.68-12.65,35.34,6.62,36.53,6.45C203.39,134.72,224.15,123.26,224.15,123.26Z" style="fill:#ebebeb"></path><path d="M232.78,153.14c-.58-1-1-2.22-1.54-3.31s-1.05-2.19-1.59-3.28q-1.58-3.13-3.12-6.29c-2.1-4.27-4.11-8.58-6.42-12.73,0-.06-.14,0-.11,0a122.48,122.48,0,0,0,5.78,13c1.05,2.13,2.14,4.25,3.25,6.36.56,1.06,1.14,2.13,1.75,3.17s1.32,2,1.87,3.11C232.69,153.31,232.83,153.23,232.78,153.14Z" style="fill:#263238"></path><path d="M209.48,164a18.55,18.55,0,0,1-5,.48c-8.43-.73-32.71-13-45.64-23.2-8.22-6.5-7.2-10.41-3.14-12Z" style="fill:#dbdbdb"></path><path d="M187.09,208.11c-.93,1.19-67.64,6-68,5.63-1-1,11.59-68.86,23.9-83.33,3.64-4.28,16.07-2.87,17.52-1.8,3.84,2.81,7.35,8.37,10.32,15.58C176.76,158.63,187.9,207.07,187.09,208.11Z" style="fill:#407BFF"></path><path d="M145.62,128.24s6,33.2,7,43.95c.29,3.3.49,90.91.49,90.91l-40.61-5.7s7.34-100,28.37-125.53C143.52,128.61,145.62,128.24,145.62,128.24Z" style="fill:#ebebeb"></path><path d="M160.91,128.88s9.18,28.19,11,41.75c1,7.63,9.63,92.33,9.63,92.33s9.11-6.13,13.33-14.15c0,0-13.75-90-24.75-109C164,129.39,160.91,128.88,160.91,128.88Z" style="fill:#ebebeb"></path><path d="M161.05,129.51c.91.7,1.71,1.53,2.55,2.32l2.46,2.4,4.81,4.92.29.3-.33.28c-1.45,1.22-2.94,2.39-4.41,3.59l.06-.65,4.78,5.46.11.13v.16l.35,6.46c.12,2.16.26,4.31.34,6.46.19,4.31.36,8.62.42,12.94-.47-4.29-.84-8.59-1.18-12.89-.2-2.15-.32-4.3-.48-6.45l-.45-6.45.12.29-4.71-5.52-.31-.36.37-.29c1.5-1.16,3-2.35,4.48-3.5l0,.58-4.6-5.11L163.4,132C162.62,131.18,161.88,130.29,161.05,129.51Z" style="fill:#c7c7c7"></path><path d="M133.41,140.67c-17.4,23.62-28.38,69.58-18.22,72.5,9.28,2.66,36.77-4.3,47.91-8.48,3.27-1.22-6.79-26.5-10.29-25.19-4.23,1.58-15.17,4.57-15.63,4.6-1,.05,5.92-32,7.79-43.61C147.58,124.29,140,131.8,133.41,140.67Z" style="fill:#c95f50"></path><path d="M186.8,169.15a4.16,4.16,0,0,1,.24,4.75,6.16,6.16,0,0,1,3.31,2.59c1.25,2.22-1.69,5.14-1.69,5.14a7.61,7.61,0,0,1,3.05,3.29c1,2.24-1.55,5.61-1.55,5.61a6.73,6.73,0,0,1,.86,4.59c-.9,4.19-7.05,6.42-11,7.88s-16.33,1.95-18.69,2.28l-9.58-24.94s15.63-11.52,20.45-12.59C176.32,166.86,184.72,166.66,186.8,169.15Z" style="fill:#c95f50"></path><path d="M186.72,173.56c-4.55-.08-8.88,1.19-13.28,2.2a.08.08,0,0,0,0,.16c4.36-1.07,8.87-1.25,13.26-2.14A.11.11,0,0,0,186.72,173.56Z" style="fill:#263238"></path><path d="M188.46,181.34a11.86,11.86,0,0,0-3,.64c-1.06.3-2.11.62-3.16,1q-3.13,1-6.23,2.17c-.09,0-.06.19,0,.16,2.09-.67,4.2-1.31,6.31-1.89,1.06-.29,2.13-.57,3.19-.84a14,14,0,0,0,3-.91C188.66,181.56,188.61,181.33,188.46,181.34Z" style="fill:#263238"></path><path d="M190.07,190.56a8.27,8.27,0,0,0-2.7.73l-2.86,1c-1.9.63-3.81,1.26-5.73,1.83-.1,0-.06.18,0,.15,2-.56,3.93-1.1,5.89-1.68l2.87-.88a7.76,7.76,0,0,0,2.53-1A.06.06,0,0,0,190.07,190.56Z" style="fill:#263238"></path><path d="M184.66,222.66a.07.07,0,0,0-.14,0v.45a.07.07,0,0,0,.08.07.07.07,0,0,0,.08-.08C184.67,223,184.66,222.81,184.66,222.66Z" style="fill:#263238"></path><path d="M145.55,145.34c-3.19,15.1-8.13,37.86-7.75,38s13.26-3.89,13.26-3.89l9.85,28.47s-41,10.31-47.11,5.3-5.31-38.32,19.46-73.94C146.56,120.11,147.9,134.23,145.55,145.34Z" style="fill:#ebebeb"></path><path d="M138.57,183a82.53,82.53,0,0,0-11.24,4.83c-1.79.94-3.55,1.94-5.3,3s-3.54,2.29-5.32,3.41c-.09,0,0,.18.08.13,1.74-1,3.58-1.92,5.37-2.88s3.68-1.91,5.53-2.83c3.66-1.8,7.29-3.68,10.94-5.49A.08.08,0,0,0,138.57,183Z" style="fill:#263238"></path><path d="M151.72,200.7q-1-3-2-6c-.65-2-1.31-3.93-2-5.88a57.86,57.86,0,0,0-2.18-5.71s-.07,0-.07,0c.37,2,1.09,4,1.66,6s1.23,4,1.89,6l1.95,5.91a39.86,39.86,0,0,0,2.23,5.7c0,.09.15,0,.14-.06A39.1,39.1,0,0,0,151.72,200.7Z" style="fill:#263238"></path><path d="M160.77,207.77c-5.58,1.33-11.14,2.72-16.77,3.83a140.55,140.55,0,0,1-17,2.32c-1.59.12-3.18.21-4.78.27s-3.28.19-4.9.15c-.11,0-.1.15,0,.16,1.44.08,2.87.23,4.32.26s2.87,0,4.31,0c2.87-.1,5.73-.35,8.58-.69a133.91,133.91,0,0,0,16.85-3.23c3.18-.81,6.35-1.71,9.46-2.75A.15.15,0,0,0,160.77,207.77Z" style="fill:#263238"></path><path d="M143.61,158.87c0-.15-.18-.2-.23-.06-.43,1.22-.88,2.43-1.3,3.65.06-.34.13-.67.19-1,.4-2,.73-4.07,1.06-6.11a.08.08,0,0,0-.15,0c-1,3.51-1.75,7.06-2.46,10.63s-1.42,7.15-2,10.74a64.2,64.2,0,0,0-1,6.75.06.06,0,0,0,.12,0c.53-1.71,1-4.28,1.36-6s.68-3.54,1-5.31c.52-2.75,1.06-5.49,1.59-8.22A22.32,22.32,0,0,0,143.61,158.87Z" style="fill:#263238"></path><path d="M144.64,131c-.58,1-1,2.15-1.5,3.23l-1.39,3.28L138.94,144l-.27-.54c2.33.44,4.65.94,7,1.41l.53.1-.19.51c-.91,2.32-1.78,4.64-2.7,6.94v-.38c1.83,4.07,3.71,8.11,5.49,12.2s3.58,8.18,5.27,12.32c-2.05-4-4-8-5.95-12s-3.8-8.08-5.71-12.11l-.09-.19.08-.2c.9-2.31,1.84-4.61,2.76-6.91l.33.61c-2.31-.51-4.63-1-6.94-1.53l-.48-.12.2-.42,3.07-6.44,1.6-3.19A30.5,30.5,0,0,1,144.64,131Z" style="fill:#c7c7c7"></path><path d="M164.5,133.45c-1.25-5.78-8.77-6.06-13.18-5.42-5.23.76-8.46,2.14-9.48,7.71-1.07,5.88-.69,12.24-.07,18.16a.86.86,0,0,1-1.71.2c-.72-6.82-2.54-19.4,2.91-24.78,5-4.95,21.13-5.87,23.24,3.93.23,1.08-1.48,1.28-1.71.2Z" style="fill:#455a64"></path><path d="M137.36,157.71a4,4,0,1,0,3.47-4.41A4,4,0,0,0,137.36,157.71Z" style="fill:#263238"></path><path d="M138.93,157.52a2.39,2.39,0,1,0,2.09-2.65A2.39,2.39,0,0,0,138.93,157.52Z" style="fill:#ebebeb"></path><path d="M163.84,152.88c.39,17.14,2.15,20.84,4,22.29a11.14,11.14,0,0,0,4.6,2l.18-1.19-.09.59.09-.59a10.17,10.17,0,0,1-4-1.7c-1.34-1-3.16-4.41-3.54-21.38Z" style="fill:#c7c7c7"></path><rect x="171.48" y="174.47" width="2.56" height="4.17" rx="1.11" transform="translate(-37.99 305.4) rotate(-77.06)" style="fill:#263238"></rect><path d="M174.36,150.28c6.61,11.1,9.26,17.45,8.35,20a9.84,9.84,0,0,1-2.53,3.58l.79.92a11,11,0,0,0,2.87-4.1c1.09-3-1.36-9.11-8.45-21Z" style="fill:#c7c7c7"></path><rect x="179.13" y="172.38" width="2.56" height="4.17" rx="1.11" transform="translate(184.51 425.39) rotate(-134.98)" style="fill:#263238"></rect><path d="M175.64,149.05a68.54,68.54,0,0,0-4.32-7.26,7.24,7.24,0,0,0-3.14-2.17c-.23,0-.71-2-1.07-3.7-.31-1.49-.65-3.23-1.13-3.6a1.19,1.19,0,0,0-1.61.38c-.28.54.19,2.25.56,3.73.42,1.67.89,3.72.66,3.79a7.84,7.84,0,0,0-1.72,3.33,56.89,56.89,0,0,0-.5,8.63c.12,1.82.74,1.87,1.27,1.9.76,0,1.07-.57,1.07-2.61,0-3.24-.36-8.59,1.73-9.18h0c2.12-.39,4.5,4.71,6,7.49.95,1.75,1.39,1.81,2.06,1.45C176,151,176.45,150.61,175.64,149.05Z" style="fill:#263238"></path><path d="M159.25,137.61c-3.33,1.92-10.06-2.52-12.78-6.87-.19-.29-.45-12.52-.59-15,0-.5,15.68,2.85,15.68,2.85a39.29,39.29,0,0,0-.94,9.56,6,6,0,0,0,.16,1c0,.05,0,.1,0,.17C161.24,131.23,161,136.62,159.25,137.61Z" style="fill:#c95f50"></path><path d="M160.82,129.33a10.71,10.71,0,0,1-1.59.18c-8.12.29-11.61-9.47-12.76-13.78,2.86.26,15.09,2.87,15.09,2.87a39.29,39.29,0,0,0-.94,9.56,5.1,5.1,0,0,0,.16,1C160.79,129.21,160.81,129.26,160.82,129.33Z" style="fill:#263238"></path><path d="M143.36,96.65c-1.74,5.47,1,21.37,4.83,25,5.6,5.19,14.86,5.8,19.3-1,4.3-6.54.41-27.2-3.92-30.47C157.21,85.37,145.93,88.57,143.36,96.65Z" style="fill:#c95f50"></path><path d="M158.19,106.16s-.08.07-.07.11c.21,1.07.28,2.33-.64,2.84,0,0,0,.07,0,.06C158.66,108.81,158.56,107.14,158.19,106.16Z" style="fill:#263238"></path><path d="M157.05,105.2c-1.75.16-1.31,3.64.3,3.49S158.51,105.07,157.05,105.2Z" style="fill:#263238"></path><path d="M164.33,105.1s.09,0,.1.09c.1,1.08.4,2.3,1.42,2.54,0,0,0,.06,0,.06C164.64,107.77,164.26,106.14,164.33,105.1Z" style="fill:#263238"></path><path d="M165.16,103.86c1.71-.35,2.28,3.11.69,3.43S163.72,104.15,165.16,103.86Z" style="fill:#263238"></path><path d="M155.79,103.24a11,11,0,0,0,1.4-.35,2.33,2.33,0,0,0,1.36-.63.74.74,0,0,0,0-.9,1.81,1.81,0,0,0-1.83-.36,2.63,2.63,0,0,0-1.65,1A.78.78,0,0,0,155.79,103.24Z" style="fill:#263238"></path><path d="M166.69,101.77a13.86,13.86,0,0,1-1.44,0,2.29,2.29,0,0,1-1.48-.22.76.76,0,0,1-.22-.88,1.85,1.85,0,0,1,1.66-.86,2.69,2.69,0,0,1,1.88.52A.79.79,0,0,1,166.69,101.77Z" style="fill:#263238"></path><path d="M158.37,116.07c.29.21.59.53,1,.51a2.92,2.92,0,0,0,1.12-.41,0,0,0,0,1,.05,0,1.43,1.43,0,0,1-1.29.75,1.15,1.15,0,0,1-1-.84A.06.06,0,0,1,158.37,116.07Z" style="fill:#263238"></path><path d="M159.1,112.7a3.66,3.66,0,0,0,2.65,1.32,5,5,0,0,0,1.33-.1l.25-.06.23-.07a.28.28,0,0,0,.19-.27h0a.43.43,0,0,0,0-.11h0v-.1c-.09-.83-.32-2.08-.32-2.08.32.11,2,.61,1.87.18a55.06,55.06,0,0,0-2.82-10.93.1.1,0,0,0-.19.06c.5,3.44,1.61,6.78,2.17,10.24a6.42,6.42,0,0,0-1.8-.31c-.11.05.51,2.41.51,2.79,0,0,0,0,0,0a5.15,5.15,0,0,1-3.94-.7C159.1,112.53,159,112.62,159.1,112.7Z" style="fill:#263238"></path><path d="M162.53,113.69a4.39,4.39,0,0,1-1.64,1.5,2,2,0,0,1-1.19.17c-.89-.16-1-1-.87-1.64a4.9,4.9,0,0,1,.31-1.07A5.64,5.64,0,0,0,162.53,113.69Z" style="fill:#263238"></path><path d="M160.89,115.19a2,2,0,0,1-1.19.17c-.89-.16-1-1-.87-1.64A2,2,0,0,1,160.89,115.19Z" style="fill:#ff9abb"></path><path d="M145.4,107.69c2.69-.15,2.44-6.73,2.44-6.73s4.11-.74,6.12-6.37c0,0,5.28,3.32,9.72,2.52,6.94-1.26,6.76-10.29,4.16-12.13-3.68-2.6-10.24,1.19-10.24,1.19s-9.93-2.78-12.9,3.94A5.09,5.09,0,0,0,140,95.19C139.66,100.08,143.4,107.81,145.4,107.69Z" style="fill:#263238"></path><path d="M146.88,101.73a9.19,9.19,0,0,0,5.19-2.83,6.84,6.84,0,0,0,1.58-6.08c0-.11.16-.15.18,0a7.84,7.84,0,0,1-1.11,6.59,6.39,6.39,0,0,1-5.83,2.56A.1.1,0,0,1,146.88,101.73Z" style="fill:#263238"></path><path d="M139.61,92.32c1.37-1.73,3.46-2,5.53-1.93.11,0,.1.2,0,.19A5.73,5.73,0,0,0,140,93.36c-1,1.63-.81,3.68-.39,5.48a14.43,14.43,0,0,0,5.75,8.6,0,0,0,0,1,0,.08,14.44,14.44,0,0,1-6.45-9.42C138.49,96.21,138.35,93.92,139.61,92.32Z" style="fill:#263238"></path><path d="M157.32,86.49a6.82,6.82,0,0,1,3.82-2.92,8.15,8.15,0,0,1,5.76.59,4.6,4.6,0,0,1,2.41,3.91,8.07,8.07,0,0,1-1.83,5.12s-.09,0-.06,0a8.1,8.1,0,0,0,1.42-4.66,4.21,4.21,0,0,0-2.48-3.73c-2.85-1.27-7-1.07-8.89,1.83C157.41,86.69,157.26,86.59,157.32,86.49Z" style="fill:#263238"></path><path d="M146.59,109.62s-3.63-5.1-5.94-3.8.44,8.71,3.18,9.71a2.78,2.78,0,0,0,3.71-1.53Z" style="fill:#c95f50"></path><path d="M141.49,107.93c-.05,0-.05,0,0,.07,1.92.76,2.94,2.53,3.66,4.37a1.54,1.54,0,0,0-2.3-.41c-.05,0,0,.12.06.11a1.68,1.68,0,0,1,1.88.58,8,8,0,0,1,.91,1.51c.1.17.4.08.34-.12l0,0C146,111.55,144.11,108.15,141.49,107.93Z" style="fill:#263238"></path><path d="M151.44,121.38c-2.85-.93-5.73-2-7.77-4.43a14.53,14.53,0,0,1-3.26-5.91,11.28,11.28,0,0,0,1.31,2.44,8,8,0,0,0,2,2h0a15.39,15.39,0,0,0,7.77,5.43C151.8,121,151.72,121.47,151.44,121.38Z" style="fill:#ebebeb"></path><path d="M147.5,111.23c-.55-.55-2.38-3.51-3.86-4.54h0a6.77,6.77,0,0,0-.71-.52,3.26,3.26,0,0,0-1.31-.54,2,2,0,0,1,1.17-.22c2.12.17,3.95,4.18,4.88,5.67C147.73,111.18,147.59,111.33,147.5,111.23Z" style="fill:#ebebeb"></path><path d="M147,110.57c-.41-.74,5.15,1.4,10.52-.38,1.1-.36,4.1-2,5.85-2.21s3.95,1.1,6.39,1.13c.84,0,.92,7.65-.85,11.18-.58,1.16-3.3,3.71-5.09,4.09-4.19.91-11.79-1.54-13.06-2.93C149.72,120.34,150.86,117.59,147,110.57Z" style="fill:#ebebeb"></path><path d="M169.33,110.82a16.26,16.26,0,0,0-5.33-1.13,18.73,18.73,0,0,0-4.23,1.46,17.17,17.17,0,0,1-10.17,1s0,.07,0,.08a13.92,13.92,0,0,0,9.25-.32c1.61-.58,3.51-1.68,5.23-1.75a22.25,22.25,0,0,1,5.24.87C169.47,111,169.49,110.88,169.33,110.82Z" style="fill:#dbdbdb"></path><path d="M167.56,119.86a29.68,29.68,0,0,1-3.26,2.21c-1.37.64-3.11.32-4.55.12a80.18,80.18,0,0,1-8.1-2s0,0,0,0a33.48,33.48,0,0,0,9.34,2.4,6.91,6.91,0,0,0,3.23-.19,14.87,14.87,0,0,0,3.38-2.55S167.6,119.84,167.56,119.86Z" style="fill:#dbdbdb"></path><path d="M168.69,113.47a17.63,17.63,0,0,0-8,.58,30.11,30.11,0,0,1-9.37.8s0,.05,0,.05a25.75,25.75,0,0,0,8.4-.41c1.33-.29,2.64-.7,4-.94a15.1,15.1,0,0,1,5,.11C168.76,113.67,168.79,113.49,168.69,113.47Z" style="fill:#dbdbdb"></path><path d="M168.35,116.44a12.85,12.85,0,0,1-7.72,2.66,34.3,34.3,0,0,1-8.44-1.52s-.05.06,0,.07c5.63,1.85,11.26,2.9,16.26-1.05C168.54,116.52,168.45,116.36,168.35,116.44Z" style="fill:#dbdbdb"></path><polygon points="155.69 145.21 158.02 140.24 162.31 144.39 161.37 148.1 157.54 148.63 155.69 145.21" style="fill:#263238"></polygon><polygon points="157.54 148.63 156.11 191.58 161.36 205.07 166.77 190.74 161.37 148.1 157.54 148.63" style="fill:#263238"></polygon><path d="M160.85,129.28l-3.31,8.93-11.31-10.87-3,3.68s11.26,17.45,11.3,16.65L158,140l5.41,5.15-.8-13.29Z" style="fill:#407BFF"></path><path d="M163.34,138.51c-.21-2.19-.35-4.4-.66-6.58a.08.08,0,0,0-.15,0c-.38,2.13.45,10.49.5,12.51l0,0c-.22-.22-5-4.52-5.05-4.45-.76,1.23-3.28,6.85-3.45,7.36-1.78-2.77-9.32-13.69-11.41-16.3a.08.08,0,0,0-.13.08c1.59,2.94,11.33,17.35,11.47,17.31s3.22-6.86,3.59-8.16c.81.94,5.66,5.81,5.66,5.49A66.86,66.86,0,0,0,163.34,138.51Z" style="fill:#263238"></path><path d="M211.07,158.24s-3.15,58.26-38.35,80.82c-35.22-22.56-38.37-80.82-38.37-80.82,22.33,0,38.37-15.52,38.37-15.52S188.74,158.24,211.07,158.24Z" style="fill:#c7c7c7"></path><path d="M207.62,160.85s-2.86,53-34.9,73.55c-32.05-20.53-34.92-73.55-34.92-73.55,20.32,0,34.92-14.13,34.92-14.13S187.3,160.85,207.62,160.85Z" style="fill:#407BFF"></path><path d="M207.62,160.85s-2.86,53-34.9,73.55a0,0,0,0,1,0,0V146.73h0S187.3,160.85,207.62,160.85Z" style="opacity:0.1"></path><polygon points="185.74 178.08 185.74 184.94 176.15 184.94 176.15 194.54 169.28 194.54 169.28 184.94 159.68 184.94 159.68 178.08 169.28 178.08 169.28 168.48 176.15 168.48 176.15 178.08 185.74 178.08" style="fill:#fff"></polygon></g><g id="freepik--speech-bubble--inject-71"><path d="M257.73,74a31.75,31.75,0,0,1-53.06,20.09l-15.89,2.33,7.95-13.74a31.76,31.76,0,1,1,61-8.68Z" style="fill:#fff"></path><path d="M257.73,74a31.92,31.92,0,0,1-6.41,16.1,29,29,0,0,1-6.23,6.15,31.43,31.43,0,0,1-7.66,4.27,31.85,31.85,0,0,1-8.55,2,30.92,30.92,0,0,1-4.41.08,27,27,0,0,1-4.4-.46,32,32,0,0,1-15.71-7.76l.37.12L188.86,97l-1.15.17.58-1,7.9-13.76,0,.54a32.15,32.15,0,0,1,2-28.31A32.62,32.62,0,0,1,208.06,44,32.29,32.29,0,0,1,236,40.23a32.58,32.58,0,0,1,12.25,7.51A32,32,0,0,1,257.73,74Zm0,0a31.42,31.42,0,0,0-36-34.37,31.23,31.23,0,0,0-13.11,5.18,32.68,32.68,0,0,0-9.5,10.36,31.37,31.37,0,0,0-4,13.44,31.77,31.77,0,0,0,2.24,13.84l.11.28-.15.26-8,13.71-.57-.84,15.9-2.22.22,0,.16.14a31.29,31.29,0,0,0,15.21,7.84,28.36,28.36,0,0,0,4.3.52,30.08,30.08,0,0,0,4.35,0,31.16,31.16,0,0,0,8.48-1.86A29.69,29.69,0,0,0,245,96.08,28.46,28.46,0,0,0,251.23,90,32,32,0,0,0,257.73,74Z" style="fill:#263238"></path><path d="M257.73,74a31.75,31.75,0,0,1-53.06,20.09l-15.89,2.33,7.95-13.74a31.76,31.76,0,1,1,61-8.68Z" style="fill:#fff"></path><path d="M257.83,72.71c0,.43-.06.84-.1,1.26,0-.28,0-.57.07-.85S257.83,72.85,257.83,72.71Zm0-.63,0,.63c0-.1,0-.2,0-.3S257.86,72.19,257.86,72.08Z" style="fill:#263238"></path><path d="M187.7,97.13l1.16-.18,15.66-2.41a31.93,31.93,0,0,0,15.55,7.61,27,27,0,0,0,4.4.46,30.92,30.92,0,0,0,4.41-.08,32.23,32.23,0,0,0,8.55-2,31.58,31.58,0,0,0,7.66-4.26,18.53,18.53,0,0,0,2-1.61c.46-.42.89-.84,1.35-1.23.83-1,1.75-1.82,2.52-2.82a5.74,5.74,0,0,0,.36-.5,29.23,29.23,0,0,0,4.12-7.14.75.75,0,0,0,.06-.13c.06-.14.12-.28.17-.43.13-.31.24-.62.35-.94a34.08,34.08,0,0,0,1.57-6.37c.05-.36.1-.72.14-1.09a32.05,32.05,0,0,1-6.5,16c-.12.16-.23.32-.36.47-.77,1-1.68,1.86-2.53,2.8L247,94.5a16.83,16.83,0,0,1-2,1.58,29.1,29.1,0,0,1-7.66,4.13,30.4,30.4,0,0,1-12.82,1.88,28.35,28.35,0,0,1-4.31-.53A31.35,31.35,0,0,1,205,93.73l-.15-.15-.23,0-14.75,2.06L197.26,83l.16-.27-.12-.27a32,32,0,0,1-2.24-13.84,30.7,30.7,0,0,1,7.59-18.41,30.86,30.86,0,0,1,4-3.91c.63-.53,1.27-1,1.93-1.48a31.39,31.39,0,0,1,13.12-5.19,31.45,31.45,0,0,1,36.15,32.48c0-.07,0-.15,0-.22,0-.27,0-.52,0-.78a1,1,0,0,0,0-.17c0-.59,0-1.19,0-1.77s-.07-1-.11-1.49-.07-.72-.13-1.07a4.7,4.7,0,0,0-.06-.51c-.07-.44-.14-.89-.23-1.33s-.17-.85-.26-1.28a1,1,0,0,0-.06-.22c-.1-.44-.22-.89-.35-1.34l-.42-1.38a31.15,31.15,0,0,0-8-12.77A32.51,32.51,0,0,0,236,40.23,32.32,32.32,0,0,0,208.06,44c-.73.49-1.44,1-2.12,1.55a31.54,31.54,0,0,0-4.07,3.85,32.52,32.52,0,0,0-3.76,5.19,32.16,32.16,0,0,0-2.07,28l-7.75,13.5Z" style="fill:#263238"></path><path d="M229.5,61.56,233,56.79c.15-.21-.62-1.56-.37-1.85s3.44,1,3.1,1.65c-.2.38-1.29.48-1.4.65s-2.39,5.61-2.39,5.61Z" style="fill:#407BFF"></path><path d="M232.9,55a6.7,6.7,0,0,0,2.62,1.29"></path><path d="M229.5,61.56,233,56.79c.15-.21-.62-1.56-.37-1.85s3.44,1,3.1,1.65c-.2.38-1.29.48-1.4.65s-2.39,5.61-2.39,5.61Z" style="opacity:0.1"></path><path d="M221.41,61.75l-.92-5.82c0-.27-1.54-.67-1.57-1s3.15-1.71,3.36-1c.13.41-.58,1.25-.53,1.46S224,61,224,61Z" style="fill:#407BFF"></path><path d="M219.21,54.74A6.81,6.81,0,0,0,222,53.8"></path><path d="M221.41,61.75l-.92-5.82c0-.27-1.54-.67-1.57-1s3.15-1.71,3.36-1c.13.41-.58,1.25-.53,1.46S224,61,224,61Z" style="opacity:0.1"></path><path d="M215.83,67.61l-4.78-3.47c-.21-.16-1.55.61-1.85.37s1-3.44,1.65-3.1c.38.2.48,1.29.65,1.4s5.61,2.38,5.61,2.38Z" style="fill:#407BFF"></path><path d="M209.31,64.2a6.86,6.86,0,0,0,1.29-2.61"></path><path d="M215.83,67.61l-4.78-3.47c-.21-.16-1.55.61-1.85.37s1-3.44,1.65-3.1c.38.2.48,1.29.65,1.4s5.61,2.38,5.61,2.38Z" style="opacity:0.1"></path><path d="M216,75.7l-5.83.92c-.26,0-.67,1.53-1.05,1.57s-1.71-3.15-1-3.36c.42-.13,1.26.57,1.46.53.35-.07,5.65-2.28,5.65-2.28Z" style="fill:#407BFF"></path><path d="M209,77.9a6.81,6.81,0,0,0-.94-2.76"></path><path d="M216,75.7l-5.83.92c-.26,0-.67,1.53-1.05,1.57s-1.71-3.15-1-3.36c.42-.13,1.26.57,1.46.53.35-.07,5.65-2.28,5.65-2.28Z" style="opacity:0.1"></path><path d="M221.87,81.28l-3.47,4.77c-.15.22.62,1.56.38,1.86s-3.44-1-3.11-1.66c.2-.38,1.29-.47,1.4-.65s2.39-5.6,2.39-5.6Z" style="fill:#407BFF"></path><path d="M218.47,87.8a6.85,6.85,0,0,0-2.62-1.29"></path><path d="M221.87,81.28l-3.47,4.77c-.15.22.62,1.56.38,1.86s-3.44-1-3.11-1.66c.2-.38,1.29-.47,1.4-.65s2.39-5.6,2.39-5.6Z" style="opacity:0.1"></path><path d="M230,81.09l.92,5.83c0,.26,1.54.66,1.58,1s-3.16,1.72-3.37,1c-.13-.41.58-1.25.53-1.45-.07-.35-2.27-5.65-2.27-5.65Z" style="fill:#407BFF"></path><path d="M232.16,88.11a6.69,6.69,0,0,0-2.76.94"></path><path d="M230,81.09l.92,5.83c0,.26,1.54.66,1.58,1s-3.16,1.72-3.37,1c-.13-.41.58-1.25.53-1.45-.07-.35-2.27-5.65-2.27-5.65Z" style="opacity:0.1"></path><path d="M235.54,75.24l4.78,3.46c.21.16,1.55-.61,1.85-.37s-1,3.44-1.65,3.11c-.38-.2-.48-1.29-.65-1.41s-5.61-2.38-5.61-2.38Z" style="fill:#407BFF"></path><path d="M242.06,78.64a6.85,6.85,0,0,0-1.29,2.62"></path><path d="M235.54,75.24l4.78,3.46c.21.16,1.55-.61,1.85-.37s-1,3.44-1.65,3.11c-.38-.2-.48-1.29-.65-1.41s-5.61-2.38-5.61-2.38Z" style="opacity:0.1"></path><path d="M235.35,67.15l5.83-.93c.26,0,.67-1.53,1-1.57s1.71,3.15,1,3.37c-.41.12-1.26-.58-1.46-.54-.35.08-5.65,2.28-5.65,2.28Z" style="fill:#407BFF"></path><path d="M242.37,65a6.85,6.85,0,0,0,.94,2.76"></path><path d="M235.35,67.15l5.83-.93c.26,0,.67-1.53,1-1.57s1.71,3.15,1,3.37c-.41.12-1.26-.58-1.46-.54-.35.08-5.65,2.28-5.65,2.28Z" style="opacity:0.1"></path><path d="M228.28,60.69s3.53-7,3.66-7.24-.8-1.47-.59-1.8,3.56.61,3.3,1.28c-.16.4-1.23.63-1.33.82s-2.48,7.93-2.48,7.93Z" style="fill:#407BFF"></path><path d="M231.67,51.72a6.76,6.76,0,0,0,2.77,1"></path><path d="M220.09,62.14s-2.46-7.46-2.53-7.71-1.61-.48-1.7-.86,2.94-2.08,3.24-1.43c.17.4-.43,1.32-.36,1.52S222.6,61,222.6,61Z" style="fill:#407BFF"></path><path d="M216.14,53.4a6.86,6.86,0,0,0,2.64-1.27"></path><path d="M215.31,69s-7-3.53-7.24-3.66-1.48.8-1.8.59.6-3.55,1.27-3.29c.41.15.64,1.23.82,1.32s7.94,2.48,7.94,2.48Z" style="fill:#407BFF"></path><path d="M206.34,65.56a6.85,6.85,0,0,0,1-2.76"></path><path d="M216.76,77.15l-7.71,2.53c-.26.07-.48,1.61-.86,1.69s-2.09-2.94-1.43-3.23c.39-.18,1.32.42,1.52.35s7.36-3.85,7.36-3.85Z" style="fill:#407BFF"></path><path d="M208,81.09a7,7,0,0,0-1.26-2.64"></path><path d="M223.57,81.92s-3.53,7-3.66,7.24.8,1.48.59,1.8-3.55-.6-3.3-1.27c.16-.4,1.23-.63,1.33-.82S221,80.93,221,80.93Z" style="fill:#407BFF"></path><path d="M220.18,90.89a6.92,6.92,0,0,0-2.76-1"></path><path d="M231.76,80.48s2.46,7.45,2.53,7.71,1.61.48,1.7.85-2.94,2.09-3.23,1.43c-.18-.39.42-1.32.35-1.51s-3.86-7.37-3.86-7.37Z" style="fill:#407BFF"></path><path d="M235.71,89.22a6.86,6.86,0,0,0-2.64,1.27"></path><path d="M236.54,73.66s7,3.54,7.24,3.67,1.48-.8,1.8-.6-.6,3.56-1.27,3.3c-.41-.15-.64-1.23-.82-1.32s-7.94-2.49-7.94-2.49Z" style="fill:#407BFF"></path><path d="M245.51,77.05a6.92,6.92,0,0,0-1,2.77"></path><path d="M235.1,65.47s7.45-2.46,7.71-2.53.48-1.61.85-1.69,2.09,2.94,1.43,3.23c-.39.17-1.32-.43-1.51-.36-.34.12-7.37,3.86-7.37,3.86Z" style="fill:#407BFF"></path><path d="M243.84,61.52a6.8,6.8,0,0,0,1.27,2.64"></path><path d="M238.93,74.3c-1.67,7.18-8.49,12-15.78,10.34-4.61-1.08-8.35-3.79-10-7.82a13.64,13.64,0,0,1-.4-8.27c2-8.61,9.49-12.25,16.63-10.58A12.55,12.55,0,0,1,234,60.05C238.67,63.39,240.06,69.47,238.93,74.3Z" style="fill:#407BFF"></path><path d="M238.93,74.3c-1.67,7.18-8.49,12-15.78,10.34-4.61-1.08-8.35-3.79-10-7.82,3.19,2.52,9.77,6.56,16.36,3.43,9.13-4.33,8.51-14.77,4.49-20.2C238.67,63.39,240.06,69.47,238.93,74.3Z" style="opacity:0.1"></path><path d="M226.94,61.44h-3.12s0-.13.06-.35l.88-5.79c.05-.29-1.45-1.23-1.36-1.66,0-.19.86-.37,1.75-.45,1.08-.08,2.25,0,2.25.45s-1,1.17-1.06,1.41C226.31,55.45,226.94,61.44,226.94,61.44Z" style="fill:#407BFF"></path><path d="M223.77,53.58a7.74,7.74,0,0,0,3.32-.1Z"></path><path d="M223.88,61.09l.88-5.79c.05-.29-1.45-1.23-1.36-1.66,0-.19.86-.37,1.75-.45a2.53,2.53,0,0,0-.83.37.24.24,0,0,0-.06.09c-.07.11,0,.22.07.34.29.33,1,.72,1,1S223.93,60.92,223.88,61.09Z" style="opacity:0.1"></path><path d="M219.49,63.13l-2.2,2.2a.91.91,0,0,0-.08-.12l0,0-3.57-4.87c-.19-.24-1.9.15-2.15-.21s1-1.77,1.88-2.5c.41-.34.78-.51,1-.33.34.34.09,1.57.24,1.74S219.49,63.13,219.49,63.13Z" style="fill:#407BFF"></path><path d="M211.69,59.81A7.86,7.86,0,0,0,214,57.39Z"></path><path d="M217.19,65.19l-3.57-4.87c-.19-.24-1.9.15-2.15-.21s1-1.77,1.88-2.5a5.47,5.47,0,0,0-.84,1.32,1.58,1.58,0,0,0-.08.31c0,.14,0,.24.07.26.35.12,1.12-.15,1.47,0S217,64.81,217.19,65.19Z" style="opacity:0.1"></path><path d="M215.42,69.58v3.11h0l-6.12-.93c-.3-.05-1.24,1.44-1.66,1.36s-.76-3.42-.17-3.94a.28.28,0,0,1,.17-.07c.49,0,1.17,1,1.4,1.07C209.43,70.22,215.42,69.58,215.42,69.58Z" style="fill:#407BFF"></path><path d="M207.56,72.75a7.74,7.74,0,0,0-.1-3.32Z"></path><path d="M215.4,72.69l-6.12-.93c-.3-.05-1.24,1.44-1.66,1.36s-.76-3.42-.17-3.94a3,3,0,0,0,.07,2.43,1.37,1.37,0,0,0,.15.25c.09.13.18.2.25.19.35-.08.89-.8,1.39-.77S215.07,72.61,215.4,72.69Z" style="opacity:0.1"></path><path d="M214.3,82.91c-.18.12,0,1.07-.06,1.67,0,.23-.05.4-.15.47-.36.23-3.41-2.26-2.83-2.84.34-.35,1.56-.09,1.75-.24s1.73-2,2.87-3.43v0c.69-.83,1.22-1.49,1.22-1.49l2.2,2.2S214.54,82.72,214.3,82.91Z" style="fill:#407BFF"></path><path d="M213.79,84.83a7.86,7.86,0,0,0-2.42-2.28Z"></path><path d="M214.24,84.58c0,.23-.05.4-.15.47-.36.23-3.41-2.26-2.83-2.84.34-.35,1.56-.09,1.75-.24s1.73-2,2.87-3.43a29.71,29.71,0,0,1-2.51,3.87c-.29.13-1.06.13-1.14.51a.41.41,0,0,0,.07.25,3.89,3.89,0,0,0,.57.79,4,4,0,0,0,.75.7.38.38,0,0,0,.11.08c.15.09.26.13.34.09A.5.5,0,0,0,214.24,84.58Z" style="opacity:0.1"></path><path d="M227.1,88.9c0,.1-.27.2-.63.28-1.13.26-3.38.34-3.38-.28s1-1.17,1.07-1.41-.28-3.26-.47-5h0c-.07-.78-.13-1.33-.13-1.33h3.11s-.89,5.84-.94,6.14S227.19,88.47,227.1,88.9Z" style="fill:#407BFF"></path><path d="M226.73,89a7.74,7.74,0,0,0-3.32.1Z"></path><path d="M226.47,89.18c-1.13.26-3.38.34-3.38-.28s1-1.17,1.07-1.41-.28-3.26-.47-5c.34,1.67,1,4.92.95,5.06s-.84,1-.63,1.32a.2.2,0,0,0,.09.06,1.57,1.57,0,0,0,.45.15A10.15,10.15,0,0,0,226.47,89.18Z" style="opacity:0.1"></path><path d="M238,84.09c-.69.78-1.52,1.47-1.82,1.17s-.09-1.57-.24-1.74-3.67-3.07-4.67-3.88h0l-.28-.21,2.2-2.21,3.68,5c.18.24,1.9-.15,2.14.21C239.14,82.6,238.63,83.38,238,84.09Z" style="fill:#407BFF"></path><path d="M238.8,82.73a7.75,7.75,0,0,0-2.27,2.42Z"></path><path d="M238,84.09c-.69.78-1.52,1.47-1.82,1.17s-.09-1.57-.24-1.74-3.67-3.07-4.67-3.88h0s5.21,3.31,5.25,3.59-.07,1.39.28,1.44a.64.64,0,0,0,.22,0A5.15,5.15,0,0,0,238,84.09Z" style="opacity:0.1"></path><path d="M242.88,73.43c-.26,0-.58-.3-.85-.58s-.45-.48-.56-.49c-.4,0-6.39.6-6.39.6V69.85l1.26.19h0l4.85.75c.31,0,1.24-1.45,1.67-1.37S243.69,73.43,242.88,73.43Z" style="fill:#407BFF"></path><path d="M242.94,69.79a7.74,7.74,0,0,0,.1,3.32Z"></path><path d="M242.88,73.43c-.26,0-.58-.3-.85-.58a4.77,4.77,0,0,0,.77,0,.2.2,0,0,0,.14-.09.68.68,0,0,0,.08-.19,3.4,3.4,0,0,0,0-1.48,1.73,1.73,0,0,0-.15-.44h0c-.06-.1-.12-.16-.18-.16-.4,0-1.1.84-1.67.76-.4-.07-3.11-.82-4.62-1.24l4.85.75c.31,0,1.24-1.45,1.67-1.37S243.69,73.43,242.88,73.43Z" style="opacity:0.1"></path><path d="M239.24,60.33c-.34.35-1.57.09-1.75.24s-4.1,4.94-4.1,4.94l-2.2-2.2.48-.35h0c1.21-.9,4.32-3.18,4.52-3.32s-.16-1.9.21-2.15c.18-.12,1.07.48,1.82,1.17h0C238.94,59.31,239.52,60.05,239.24,60.33Z" style="fill:#407BFF"></path><path d="M236.71,57.71A7.74,7.74,0,0,0,239.13,60Z"></path><path d="M238.23,58.66a3.26,3.26,0,0,0-.89-.36l-.19,0c-.18,0-.31.07-.33.24-.08.46.2,1.29,0,1.56s-4.95,2.78-5.14,2.88c1.21-.9,4.32-3.18,4.52-3.32s-.16-1.9.21-2.15C236.59,57.37,237.48,58,238.23,58.66Z" style="opacity:0.1"></path><g style="opacity:0.1"><path d="M221.49,79.6c-.14.29-.64.35-1.12.13s-.76-.64-.63-.93.63-.35,1.12-.12S221.62,79.31,221.49,79.6Z"></path><path d="M221.16,80.64a3.21,3.21,0,0,1-1.9-.91,1,1,0,0,1-.31-1.12c.2-.51.69-.49,1.16-.54,0,0,0,0,0,0-.8-.09-1.76.25-1.62,1.23.18,1.17,1.65,1.65,2.66,1.58C221.25,80.82,221.28,80.65,221.16,80.64Z"></path><path d="M223.31,63.06c.05.31-.49.65-1.2.74s-1.31-.08-1.35-.4.49-.65,1.2-.74S223.27,62.74,223.31,63.06Z"></path><path d="M221.49,64.47a2.87,2.87,0,0,1-1.06-.34.78.78,0,0,1-.21-1.14,2.38,2.38,0,0,1,1.73-.94s0-.06,0-.06c-.8,0-2,.43-2.26,1.3-.34,1.11,1,1.32,1.81,1.31C221.56,64.6,221.55,64.48,221.49,64.47Z"></path><path d="M233.24,67.07c0,.32-.45.57-1,.55s-.95-.28-.95-.6.45-.57,1-.55S233.24,66.75,233.24,67.07Z"></path><path d="M232.18,68.35a4,4,0,0,1-1.49-.74c-.75-.81.41-1.3,1.05-1.49a0,0,0,0,0,0-.06c-.69.07-1.75.49-1.6,1.36s1.31,1.22,2,1.09A.08.08,0,0,0,232.18,68.35Z"></path><path d="M217.88,76c0,.25-.36.43-.77.41s-.74-.24-.72-.49.35-.43.76-.4S217.89,75.78,217.88,76Z"></path><path d="M217,77a3.2,3.2,0,0,1-1.14-.6c-.57-.64.35-1,.84-1.14a0,0,0,1,0,0,0c-.54,0-1.36.34-1.27,1s1,1,1.56.89A.07.07,0,0,0,217,77Z"></path><path d="M235.69,76.35c.07.39-.4.8-1.05.91s-1.23-.11-1.3-.5.4-.8,1-.92S235.62,76,235.69,76.35Z"></path><path d="M233.36,75.69s0,0,0,0c-.62.46-1.48,1.22-.86,2a1.85,1.85,0,0,0,2.32.36c.06,0,0-.12,0-.12a3.2,3.2,0,0,1-1.68-.21C232.07,77.24,232.78,76.21,233.36,75.69Z"></path></g><path d="M204.6,47.32c3.43,4,7,8,10.64,11.81s7.33,7.63,11,11.39,7.53,7.43,11.39,11,7.75,7.21,11.81,10.63c-3.43-4-7-8-10.63-11.81S231.53,72.76,227.8,69,220.27,61.57,216.41,58,208.66,50.75,204.6,47.32Z" style="fill:#263238"></path></g></svg>